<svg width="78" height="78" viewBox="0 0 78 78" fill="none" xmlns="http://www.w3.org/2000/svg">
<path d="M61.0994 48.0994V71.4994C61.0994 74.3712 58.7713 76.6993 55.8995 76.6993H22.0995C19.2276 76.6993 16.8995 74.3712 16.8995 71.4994V48.0994H61.0994Z" fill="#FFE9F0"/>
<path d="M57.1995 48.0994V71.4994C57.1995 74.3712 54.8713 76.6993 51.9995 76.6993H22.0995C19.2276 76.6993 16.8995 74.3712 16.8995 71.4994V48.0994H57.1995Z" fill="url(#paint0_linear)"/>
<path d="M45.0833 76.6993C49.8543 68.8732 50.0493 56.6793 44.1993 49.3993H29.8992C35.7492 56.6793 35.5542 68.8732 30.7833 76.6993" fill="url(#paint1_linear)"/>
<path d="M61.0998 6.69488V36.3999H16.8997V6.69488C16.8474 3.76988 19.1746 1.35538 22.0996 1.29993H55.8997C58.8247 1.35538 61.1519 3.76972 61.0998 6.69488Z" fill="#FFDFE9"/>
<path d="M57.1998 6.69488V36.3999H16.8997V6.69488C16.8474 3.76988 19.1746 1.35538 22.0996 1.29993H51.9997C54.9247 1.35538 57.2519 3.76972 57.1998 6.69488Z" fill="url(#paint2_linear)"/>
<path d="M63.6998 36.3998V48.0998C63.6956 49.534 62.5339 50.6956 61.0998 50.6999H16.8998C15.4657 50.6956 14.304 49.534 14.2998 48.0998V36.3998C14.2998 35.6818 14.8819 35.0999 15.5997 35.0999H62.3997C63.1179 35.0999 63.6998 35.682 63.6998 36.3998Z" fill="#FFE9F0"/>
<path d="M59.7998 36.3998V48.0998C59.7956 49.534 58.6339 50.6956 57.1998 50.6999H16.8998C15.4657 50.6956 14.304 49.534 14.2998 48.0998V36.3998C14.2998 35.6818 14.8819 35.0999 15.5997 35.0999H58.4999C59.2179 35.0999 59.7998 35.682 59.7998 36.3998Z" fill="url(#paint3_linear)"/>
<path d="M63.6998 36.3998V42.8999H14.2999V36.3998C14.2999 35.6818 14.882 35.0999 15.5999 35.0999H62.3999C63.1179 35.0999 63.6998 35.682 63.6998 36.3998Z" fill="#FFE9F0"/>
<path d="M59.7998 36.3998V42.8999H14.2999V36.3998C14.2999 35.6818 14.882 35.0999 15.5999 35.0999H58.4999C59.2179 35.0999 59.7998 35.682 59.7998 36.3998Z" fill="url(#paint4_linear)"/>
<path d="M16.9007 50.6998V71.4998C16.9007 74.3716 19.2288 76.6997 22.1006 76.6997H26.0006C23.1288 76.6997 20.8007 74.3716 20.8007 71.4998V50.6998C19.3665 50.6956 18.2049 49.5339 18.2006 48.0998V36.3998C18.2006 35.6818 18.7827 35.0998 19.5006 35.0998H20.8005V6.69488C20.7483 3.76988 23.0755 1.35538 26.0005 1.29993H22.1005C19.1755 1.35538 16.8483 3.76988 16.9005 6.69488V35.0998H15.6007C14.8827 35.0998 14.3008 35.6819 14.3008 36.3998V48.0998C14.305 49.5339 15.4665 50.6956 16.9007 50.6998Z" fill="white"/>
<path d="M18.1998 50.7004V67.6004V71.5004H15.5997V67.6004V50.7004H18.1998Z" fill="white"/>
<path d="M16.8999 62.3998C17.4281 62.4029 17.9055 62.0862 18.1081 61.5984C18.3106 61.1106 18.198 60.5487 17.8229 60.1769L17.6279 60.0209C17.5554 59.9717 17.4768 59.9323 17.3939 59.9039C17.3202 59.8662 17.2414 59.84 17.1599 59.8259C17.074 59.8114 16.987 59.8027 16.8999 59.7998C16.5557 59.8048 16.2262 59.9395 15.9768 60.1769C15.8594 60.3012 15.7666 60.4468 15.7038 60.6059C15.5078 61.0908 15.6146 61.6456 15.9768 62.0228C16.1011 62.1402 16.2468 62.233 16.4058 62.2958C16.5623 62.3625 16.73 62.3979 16.8999 62.3998Z" fill="#EE3675"/>
<path d="M15.6001 51.7608V55.9C15.6001 56.6179 16.1822 57.1999 16.9001 57.1999C17.6179 57.1999 18.2 56.6179 18.2 55.9V52H29.241C33.9391 58.2971 34.2565 67.9159 30.021 75.3999H22.1C19.9462 75.3999 18.2 73.6538 18.2 71.5V66.3C18.2 65.582 17.6179 65 16.9001 65C16.1822 65 15.6001 65.582 15.6001 66.3V71.5C15.6044 75.088 18.512 77.9956 22.1002 78H55.9002C59.4882 77.9957 62.3959 75.0881 62.4003 71.5V51.7608C63.953 51.2119 64.9935 49.7468 65.0003 48.0999V35.1C65.0003 34.382 64.4184 33.8001 63.7004 33.8001H62.4001V6.50005C62.3959 2.9119 59.4882 0.00426563 55.9001 0H22.1002C18.5122 0.00426563 15.6046 2.9119 15.6001 6.50005V33.8001H14.3002C13.5822 33.8001 13.0002 34.382 13.0002 35.1V48.0999C13.0069 49.7468 14.0475 51.2119 15.6001 51.7608ZM32.3779 52H43.5411C48.2392 58.2971 48.5565 67.9159 44.3211 75.3999H32.9707C36.7461 68.0023 36.523 59.197 32.3779 52ZM55.9001 75.3999H47.2707C51.046 68.0023 50.8229 59.197 46.678 52H59.8001V71.5C59.8001 73.6539 58.0541 75.3999 55.9001 75.3999ZM61.1002 49.4001H59.8002V48.1001C59.8002 47.3821 59.2183 46.8002 58.5003 46.8002C57.7823 46.8002 57.2003 47.3823 57.2003 48.1001V49.4001H53.3003V48.1001C53.3003 47.3821 52.7182 46.8002 52.0004 46.8002C51.2826 46.8002 50.7004 47.3823 50.7004 48.1001V49.4001H46.8004V48.1001C46.8004 47.3821 46.2185 46.8002 45.5005 46.8002C44.7825 46.8002 44.2005 47.3823 44.2005 48.1001V49.4001H40.3006V48.1001C40.3006 47.3821 39.7184 46.8002 39.0006 46.8002C38.2826 46.8002 37.7007 47.3823 37.7007 48.1001V49.4001H33.8006V48.1001C33.8006 47.3821 33.2185 46.8002 32.5007 46.8002C31.7829 46.8002 31.2008 47.3823 31.2008 48.1001V49.4001H27.3008V48.1001C27.3008 47.3821 26.7186 46.8002 26.0008 46.8002C25.283 46.8002 24.7009 47.3823 24.7009 48.1001V49.4001H20.8009V48.1001C20.8009 47.3821 20.2187 46.8002 19.5009 46.8002C18.7829 46.8002 18.201 47.3823 18.201 48.1001V49.4001H16.901C16.183 49.4001 15.6011 48.8179 15.6011 48.1001V44.2001H62.4011V48.1001C62.4001 48.8179 61.8182 49.4001 61.1002 49.4001ZM48.1001 33.8001V31.2H59.8001V33.8001H48.1001ZM32.5001 33.8001V31.2H45.5V33.8001H32.5001ZM18.2002 16.8999H29.9002V28.5999H18.2002V16.8999ZM32.5001 16.8999H45.5V28.5999H32.5001V16.8999ZM32.5001 14.3001V2.60005H45.5V14.3001H32.5001ZM59.8001 28.5999H48.1001V16.8999H59.8001V28.5999ZM59.8001 6.50005V14.3001H48.1001V2.60005H55.9001C58.0541 2.60005 59.8001 4.34606 59.8001 6.50005ZM22.1002 2.60005H29.9002V14.3001H18.2002V6.50005C18.2002 4.34606 19.9462 2.60005 22.1002 2.60005ZM18.2002 31.2H29.9002V33.8001H18.2002V31.2ZM62.4001 36.3999V41.5999H15.6001V36.3999H62.4001Z" fill="#EE3675"/>
<defs>
<linearGradient id="paint0_linear" x1="53.142" y1="74.2415" x2="23.8143" y2="47.8168" gradientUnits="userSpaceOnUse">
<stop stop-color="#FEEFF4"/>
<stop offset="1" stop-color="#FFFBF5"/>
</linearGradient>
<linearGradient id="paint1_linear" x1="46.7427" y1="74.3532" x2="26.0331" y2="65.2683" gradientUnits="userSpaceOnUse">
<stop stop-color="#FEEFF4"/>
<stop offset="1" stop-color="#FFFBF5"/>
</linearGradient>
<linearGradient id="paint2_linear" x1="53.143" y1="33.3835" x2="18.6155" y2="8.03359" gradientUnits="userSpaceOnUse">
<stop stop-color="#FEEFF4"/>
<stop offset="1" stop-color="#FFFBF5"/>
</linearGradient>
<linearGradient id="paint3_linear" x1="55.2188" y1="49.3592" x2="41.8223" y2="24.3745" gradientUnits="userSpaceOnUse">
<stop stop-color="#FEEFF4"/>
<stop offset="1" stop-color="#FFFBF5"/>
</linearGradient>
<linearGradient id="paint4_linear" x1="55.2188" y1="42.2295" x2="51.1959" y2="27.2241" gradientUnits="userSpaceOnUse">
<stop stop-color="#FEEFF4"/>
<stop offset="1" stop-color="#FFFBF5"/>
</linearGradient>
</defs>
</svg>
