<svg width="78" height="78" viewBox="0 0 78 78" fill="none" xmlns="http://www.w3.org/2000/svg">
<g clip-path="url(#clip0)">
<path d="M74.1387 35.4906C69.3681 35.4588 65.008 32.7857 62.8157 28.5486C62.4643 27.8705 62.1771 27.1611 61.9577 26.4296C61.2679 26.7541 60.5553 27.0278 59.8257 27.2486C53.519 29.0513 46.7934 26.3418 43.4977 20.6706C43.3723 20.4697 43.2595 20.2613 43.1597 20.0466C42.524 18.8299 42.0769 17.5236 41.8337 16.1726C38.6438 16.9705 35.2643 16.2366 32.6928 14.1875C30.1212 12.1384 28.6512 9.00809 28.7167 5.72062C28.745 4.85819 28.3389 4.03904 27.6354 3.53947C26.9318 3.03991 26.0245 2.92654 25.2197 3.23762C24.0367 3.70562 22.8797 4.23862 21.7227 4.82362C21.4107 4.99262 21.0597 5.17462 20.7477 5.35662L20.7607 5.39562C24.3227 6.07162 23.6727 11.2846 23.4257 14.4826C23.1787 17.8496 22.5937 19.2146 21.0987 20.0466C19.5777 20.8786 17.4847 20.3196 14.8457 19.7346C12.4537 19.2016 9.16467 18.8896 7.81267 17.2126H7.79967C1.64521 26.2836 -0.255472 37.5844 2.59303 48.1695C5.44154 58.7547 12.757 67.5754 22.6327 72.3326L22.6457 72.3456C22.6587 72.3586 22.6847 72.3586 22.6977 72.3716L22.7237 72.3196V72.3066C22.5156 71.8126 22.3588 71.2986 22.2557 70.7726C21.9437 68.5886 25.3757 63.8696 26.8967 61.9066C27.4459 61.1937 28.2978 60.7798 29.1977 60.7886C32.1877 60.8276 37.7777 62.1666 39.1037 63.0896C40.7417 64.2596 43.2117 69.0046 42.3797 73.4376C42.1697 74.4047 41.6764 75.2872 40.9627 75.9726V75.9856C46.303 75.7168 51.5224 74.2978 56.2637 71.8256C57.5918 71.1422 58.8769 70.3781 60.1117 69.5376C58.6947 68.7966 57.4467 68.0426 57.0307 67.7826C56.1077 67.2106 54.8077 60.5156 55.1717 59.2806C55.4447 58.3446 60.2157 55.8356 62.5557 54.6396C63.3372 54.239 64.2727 54.2836 65.0127 54.7566C66.971 55.9857 68.8351 57.3589 70.5897 58.8646C74.6131 52.6764 76.7371 45.4457 76.6997 38.0646C76.6933 36.6507 75.5525 35.5041 74.1387 35.4906ZM19.5647 56.8756C18.6287 57.5386 15.2097 56.3946 14.3387 56.0176C13.4677 55.6406 11.6607 55.1986 11.6347 54.0936C12.0075 51.8079 12.5154 49.5463 13.1557 47.3206C13.6367 45.1756 16.1977 46.2286 18.2907 46.6316C20.3837 47.0346 22.8407 49.0236 23.0877 50.2066C23.3347 51.3896 20.5137 56.2126 19.5647 56.8756ZM35.2687 34.2946C34.9307 35.9716 31.7197 40.5086 30.0687 41.3016C28.4177 42.0946 22.7497 40.2356 21.7097 39.8976C20.6697 39.5596 17.8487 33.3456 17.9137 32.0586C17.9657 31.0966 22.0087 27.5346 24.0107 25.8316C24.673 25.261 25.5877 25.083 26.4157 25.3636C28.7269 26.1352 30.9705 27.0961 33.1237 28.2366C35.7237 29.7836 35.5937 32.6176 35.2687 34.2946ZM57.7067 42.3676C57.3297 43.6026 55.2367 50.3106 53.3517 51.3636C51.4667 52.4166 44.8627 52.4036 43.0167 51.5716C41.1707 50.7396 38.3627 48.9326 38.6357 45.3706C39.0123 42.5232 39.6166 39.7105 40.4427 36.9596C40.7447 35.969 41.544 35.2092 42.5487 34.9576C45.5517 34.2036 51.7657 32.7476 52.7407 33.3716C54.0277 34.1906 58.0967 41.1326 57.7067 42.3676Z" fill="#FC89B1"/>
<path d="M45.8902 52.1075C44.9106 52.0743 43.9416 51.8937 43.0159 51.5719C41.1829 50.7399 38.3619 48.9329 38.6349 45.3709C39.0115 42.5235 39.6158 39.7108 40.4419 36.9599C40.7439 35.9693 41.5432 35.2094 42.5479 34.9579C44.208 34.5406 46.8457 33.9179 49.0401 33.5357C48.9774 33.4763 48.9105 33.4216 48.8399 33.3719C47.8649 32.7479 41.6509 34.2039 38.6479 34.9579C37.6432 35.2094 36.8439 35.9693 36.5419 36.9599C35.7158 39.7108 35.1115 42.5235 34.7349 45.3709C34.4619 48.9329 37.2829 50.7399 39.1159 51.5719C41.3216 52.1666 43.6184 52.3482 45.8902 52.1075Z" fill="#FC89B1"/>
<path d="M39.2601 20.0462C39.3599 20.261 39.4728 20.4694 39.5981 20.6702C42.5109 25.6867 48.1657 28.4466 53.9124 27.6564C49.5475 27.0633 45.7026 24.484 43.4981 20.6702C43.3728 20.4694 43.2599 20.261 43.1601 20.0462C42.5245 18.8295 42.0774 17.5233 41.8341 16.1722C40.5784 16.4929 39.2737 16.5758 37.9874 16.4166C38.2367 17.6809 38.6653 18.9031 39.2601 20.0462Z" fill="#FC89B1"/>
<path d="M14.3387 56.018C13.4807 55.628 11.6607 55.199 11.6347 54.094C12.0076 51.8083 12.5155 49.5467 13.1557 47.3211C13.2168 46.9972 13.3708 46.6982 13.599 46.4605C11.6997 46.0211 9.67694 45.44 9.25574 47.3211C8.61547 49.5467 8.10758 51.8083 7.73474 54.094C7.76074 55.199 9.58074 55.628 10.4387 56.018C11.2967 56.408 14.7287 57.539 15.6647 56.876C15.7774 56.7886 15.8814 56.6907 15.9754 56.5835C15.4203 56.424 14.874 56.2353 14.3387 56.018Z" fill="#FC89B1"/>
<path d="M26.169 41.3021C26.2427 41.2625 26.3143 41.2191 26.3835 41.1721C24.8019 40.8292 23.2397 40.4027 21.7035 39.8942C20.6635 39.5562 17.8425 33.3422 17.9075 32.0552C17.9595 31.1023 21.9219 27.6027 23.9434 25.8802C23.4156 25.6839 22.9242 25.5058 22.5134 25.3602C21.6854 25.0796 20.7707 25.2576 20.1084 25.8282C18.1064 27.5312 14.0634 31.0932 14.0114 32.0552C13.9464 33.3422 16.7674 39.5562 17.8074 39.8942C18.8474 40.2322 24.518 42.0821 26.169 41.3021Z" fill="#FC89B1"/>
<path d="M25.2978 60.788C24.398 60.7792 23.5461 61.1931 22.9969 61.906C21.6527 63.6415 18.8187 67.5272 18.3936 69.9153C19.7534 70.8108 21.1695 71.618 22.6329 72.332L22.6459 72.345C22.6589 72.358 22.6849 72.358 22.6979 72.371L22.7239 72.319V72.306C22.5158 71.812 22.359 71.298 22.2559 70.772C21.9439 68.588 25.3759 63.869 26.8969 61.906C27.1886 61.5343 27.5665 61.2394 27.9979 61.0467C27.1046 60.9008 26.2026 60.8144 25.2978 60.788Z" fill="#FC89B1"/>
<path d="M74.139 35.4903C69.3683 35.4585 65.0083 32.7854 62.8159 28.5483C62.4646 27.8702 62.1774 27.1608 61.9579 26.4293C61.2681 26.7538 60.5556 27.0275 59.8259 27.2483C59.3735 27.3783 58.9159 27.4758 58.4609 27.5577C58.5958 27.8954 58.7476 28.226 58.9159 28.5483C61.1083 32.7854 65.4683 35.4585 70.2389 35.4903C71.6528 35.5038 72.7936 36.6504 72.8 38.0643C72.8305 44.6108 71.1601 51.0529 67.9522 56.7596C68.872 57.4088 69.7528 58.1116 70.5899 58.8643C74.6133 52.6761 76.7373 45.4454 76.7 38.0643C76.6936 36.6504 75.5528 35.5038 74.139 35.4903Z" fill="#FC89B1"/>
<path d="M55.1714 59.2808C55.4132 58.454 59.1637 56.4 61.648 55.1078C61.4595 54.9778 61.2775 54.8634 61.1124 54.7568C60.3724 54.2838 59.437 54.2392 58.6554 54.6398C56.3154 55.8358 51.5444 58.3448 51.2714 59.2808C50.9074 60.5158 52.2074 67.2108 53.1304 67.7828C53.5464 68.0428 54.7944 68.7968 56.2114 69.5378C54.9766 70.3783 53.6916 71.1424 52.3634 71.8258C48.9124 73.6207 45.2013 74.8634 41.3654 75.5087C41.2354 75.666 41.1054 75.822 40.9624 75.9728V75.9858C46.3028 75.717 51.5221 74.298 56.2634 71.8258C57.5915 71.1424 58.8766 70.3783 60.1114 69.5378C58.6944 68.7968 57.4464 68.0428 57.0304 67.7828C56.1074 67.2108 54.8074 60.5158 55.1714 59.2808Z" fill="#FC89B1"/>
<path d="M10.9457 19.7346C13.4157 20.2806 15.393 20.7902 16.8841 20.1779C16.2445 20.0479 15.5672 19.8945 14.8457 19.7346C12.4537 19.2016 9.16469 18.8896 7.81269 17.2126H7.79969C7.44349 17.7326 7.11589 18.2812 6.78699 18.8233C8.14419 19.2224 9.66909 19.4499 10.9457 19.7346Z" fill="#FC89B1"/>
<path d="M24.817 5.72062C24.7537 8.89172 26.1198 11.9232 28.5374 13.9763C30.9549 16.0294 34.1676 16.8865 37.2866 16.3104C32.2342 15.3354 28.6168 10.8653 28.717 5.72062C28.7454 4.85819 28.3393 4.03904 27.6357 3.53947C26.9321 3.03991 26.0249 2.92654 25.22 3.23762C24.804 3.40272 24.3932 3.58472 23.9824 3.76542C24.5322 4.26442 24.837 4.97841 24.817 5.72062Z" fill="#FC89B1"/>
<path d="M23.4256 14.4823C23.1786 17.8493 22.5936 19.2143 21.0986 20.0463C19.5776 20.8783 17.4846 20.3193 14.8456 19.7343C12.4536 19.2013 9.16456 18.8893 7.81256 17.2123H7.79956C11.0991 12.3101 15.5143 8.26026 20.6826 5.39532C20.7086 5.38232 20.7216 5.36932 20.7476 5.35632L20.7606 5.39532C24.3226 6.07132 23.6726 11.2843 23.4256 14.4823Z" fill="#FC89B1"/>
<path d="M20.7613 5.39532L20.7483 5.35632C20.7223 5.36932 20.7093 5.38232 20.6833 5.39532C20.0185 5.76452 19.3685 6.15106 18.7333 6.55492C20.1295 8.42953 19.7122 12.0409 19.5237 14.4849C19.2767 17.8519 18.6917 19.2169 17.1967 20.0489C17.0943 20.0981 16.9893 20.1415 16.8821 20.1789C18.2599 20.623 19.7489 20.5771 21.0967 20.0489C22.5917 19.2169 23.1767 17.8519 23.4237 14.4849C23.6733 11.2843 24.3233 6.07132 20.7613 5.39532Z" fill="#F56597"/>
<path d="M42.3798 73.4375C42.1698 74.4045 41.6765 75.2871 40.9628 75.9725V75.9855C40.9115 75.9962 40.8591 76.0006 40.8068 75.9985H40.7938C34.5536 76.3184 28.3326 75.0715 22.6978 72.3715L22.7238 72.3195V72.3065C22.5157 71.8125 22.3589 71.2985 22.2558 70.7725C21.9438 68.5885 25.3758 63.8695 26.8968 61.9065C27.446 61.1936 28.2979 60.7796 29.1978 60.7885C32.1878 60.8275 37.7778 62.1665 39.1038 63.0895C40.7418 64.2595 43.2118 69.0045 42.3798 73.4375Z" fill="#FC89B1"/>
<path d="M39.1041 63.0895C37.7781 62.1665 32.1881 60.8275 29.1981 60.7885C28.7838 60.7855 28.374 60.8743 27.9982 61.0485C30.4914 61.3513 32.9224 62.0399 35.2041 63.0895C36.8421 64.2595 39.3121 69.0045 38.4801 73.4375C38.2701 74.4046 37.7768 75.2871 37.0631 75.9725V75.9855H37.0501C38.2954 76.0519 39.5432 76.0558 40.7889 75.9972H40.8019C40.8542 75.9994 40.9066 75.995 40.9579 75.9842V75.9712C41.6716 75.2858 42.165 74.4033 42.3749 73.4362C43.2121 69.0045 40.7421 64.2595 39.1041 63.0895Z" fill="#F56597"/>
<path d="M19.5653 56.8755C18.6293 57.5385 15.2103 56.3945 14.3393 56.0175C13.4683 55.6405 11.6613 55.1985 11.6353 54.0935C12.0081 51.8078 12.516 49.5461 13.1563 47.3205C13.6373 45.1755 16.1983 46.2285 18.2913 46.6315C20.3843 47.0345 22.8413 49.0235 23.0883 50.2065C23.3353 51.3895 20.5143 56.2125 19.5653 56.8755Z" fill="#FC89B1"/>
<path d="M23.0876 50.2061C22.8406 49.0231 20.3966 47.0211 18.2906 46.6311C16.5707 46.2996 14.5375 45.5339 13.5989 46.4595C13.8667 46.5219 14.1319 46.5817 14.3906 46.6311C16.4966 47.0211 18.9406 49.0231 19.1876 50.2061C19.4112 51.2799 17.1076 55.345 15.9753 56.5826C17.3013 56.9726 18.9549 57.3067 19.5646 56.8751C20.5136 56.2121 23.3346 51.3891 23.0876 50.2061Z" fill="#F56597"/>
<path d="M35.269 34.2944C34.931 35.9714 31.72 40.5084 30.069 41.3014C28.4179 42.0944 22.7499 40.2354 21.7099 39.8974C20.6699 39.5594 17.8489 33.3454 17.9139 32.0584C17.9659 31.0964 22.0089 27.5344 24.0109 25.8314C24.6733 25.2608 25.588 25.0828 26.4159 25.3634C28.7271 26.135 30.9708 27.0959 33.124 28.2364C35.724 29.7834 35.594 32.6174 35.269 34.2944Z" fill="#FC89B1"/>
<path d="M33.1236 28.2364C30.9704 27.0959 28.7268 26.135 26.4156 25.3634C25.5876 25.0828 24.6729 25.2608 24.0106 25.8314L23.9495 25.8834C25.7658 26.53 27.5291 27.3167 29.2236 28.2364C31.8236 29.7834 31.6936 32.6174 31.3686 34.2944C30.3212 36.9742 28.6075 39.3425 26.3896 41.1753C27.5863 41.5356 28.8559 41.5804 30.0751 41.3053C31.7261 40.5123 34.9371 35.9753 35.2751 34.2983C35.6131 32.6213 35.7236 29.7834 33.1236 28.2364Z" fill="#F56597"/>
<path d="M57.7068 42.3672C57.3298 43.6022 55.2368 50.3102 53.3518 51.3632C51.4668 52.4162 44.8628 52.4032 43.0168 51.5712C41.1708 50.7392 38.3628 48.9322 38.6358 45.3702C39.0125 42.5227 39.6167 39.7101 40.4428 36.9592C40.7449 35.9685 41.5441 35.2087 42.5488 34.9572C45.5518 34.2032 51.7658 32.7472 52.7408 33.3712C54.0278 34.1902 58.0968 41.1322 57.7068 42.3672Z" fill="#FC89B1"/>
<path d="M52.7408 33.3717C51.5113 33.1425 50.2455 33.1985 49.041 33.5355C50.4983 34.8355 54.1786 41.1899 53.8068 42.3677C53.4298 43.6027 51.3368 50.3107 49.4518 51.3637C48.321 51.8291 47.1137 52.0812 45.8911 52.1073C48.56 52.3049 52.0531 52.0839 53.3518 51.3637C55.2368 50.3107 57.3298 43.6027 57.7068 42.3677C58.0838 41.1327 54.0278 34.1907 52.7408 33.3717Z" fill="#F56597"/>
<path d="M70.5901 58.8642C67.8523 63.0916 64.2882 66.7219 60.1121 69.5372C58.6951 68.7962 57.4471 68.0422 57.0311 67.7822C56.1081 67.2102 54.8081 60.5152 55.1721 59.2802C55.4451 58.3442 60.2161 55.8352 62.5561 54.6392C63.3376 54.2386 64.2731 54.2832 65.0131 54.7562C66.9714 55.9853 68.8355 57.3585 70.5901 58.8642Z" fill="#FC89B1"/>
<path d="M65.0129 54.7562C64.2729 54.2832 63.3374 54.2386 62.5559 54.6392C62.2842 54.7783 61.9761 54.9369 61.6459 55.1072C63.4166 56.2348 65.1024 57.4905 66.6899 58.8642C64.334 62.4987 61.3644 65.6962 57.9136 68.3139C58.496 68.6571 59.2721 69.0939 60.1119 69.5372C64.288 66.7219 67.8521 63.0916 70.5899 58.8642C68.8353 57.3585 66.9712 55.9853 65.0129 54.7562Z" fill="#F56597"/>
<path d="M22.6979 72.3709C28.3055 75.0801 34.5034 76.3388 40.7237 76.0317C23.2954 75.0051 8.8474 62.1561 5.79307 44.9668C2.73874 27.7776 11.8758 10.7377 27.8836 3.76993C27.176 3.0872 26.1356 2.87903 25.2199 3.23693C15.3021 7.16553 7.50464 15.0997 3.749 25.0842C-0.0066458 35.0687 0.628843 46.175 5.49885 55.6659C9.23353 62.978 15.2801 68.8509 22.6979 72.3709Z" fill="#F56597"/>
<path d="M0.779907 46.1504L3.32791 45.6304C3.99922 48.9152 5.11858 52.0922 6.65461 55.0723L4.34321 56.2644C2.69822 53.072 1.49926 49.6689 0.779907 46.1504Z" fill="#F56597"/>
<path d="M21.2994 41.1301C23.7308 42.0436 26.2821 42.5989 28.8732 42.7785C29.4723 42.8049 30.0699 42.7002 30.6243 42.4717C32.6549 41.5032 36.1389 36.5814 36.538 34.5417C37.188 31.2059 36.2169 28.5721 33.7924 27.1252C31.5651 25.9391 29.2437 24.9391 26.8517 24.1352C25.5857 23.6958 24.1815 23.9616 23.1636 24.8333C16.6987 30.3466 16.648 31.3775 16.6168 31.9937C16.5518 33.3314 19.3702 40.4931 21.2994 41.1301ZM24.851 26.8171C25.1617 26.5453 25.5934 26.4591 25.9846 26.5909C28.2142 27.3366 30.3797 28.2618 32.4599 29.3573C33.912 30.2244 34.4255 31.8 33.9874 34.0373C33.7391 35.3009 30.753 39.5246 29.505 40.12C29.0253 40.3358 26.6333 40.133 22.2614 38.7043C20.9178 36.7219 19.8939 34.5408 19.2272 32.2407C20.8981 30.2328 22.7839 28.4141 24.851 26.8171Z" fill="white"/>
<path d="M47.8395 53.4739C49.93 53.5799 52.0196 53.2478 53.9742 52.4989C55.5511 51.6241 57.2242 48.3389 58.9493 42.7489C59.5759 40.717 54.9115 33.2096 53.4308 32.2658C52.8848 31.9187 51.8708 31.2713 42.2248 33.6958C40.7691 34.055 39.6146 35.1619 39.1945 36.6013C38.3377 39.4349 37.7172 42.3348 37.3394 45.271C37.0872 48.4859 38.915 51.143 42.4835 52.7512C44.2127 53.3039 46.0256 53.5486 47.8395 53.4739ZM39.9342 45.4738C40.2996 42.709 40.8896 39.9787 41.6983 37.3098C41.8638 36.7641 42.3061 36.3471 42.8605 36.2139C48.8613 34.7072 51.4405 34.4367 52.1113 34.5238C53.1396 35.4338 56.2713 40.7249 56.4286 42.1081C54.7646 47.4732 53.2995 49.908 52.7158 50.2252C51.2052 51.0624 45.0185 51.0404 43.5547 50.3813C40.9872 49.2243 39.7691 47.5798 39.9342 45.4738Z" fill="white"/>
<path d="M13.1303 45.1807C12.4879 45.5976 12.0418 46.2571 11.894 47.0085C11.2006 49.3379 10.6792 51.7151 10.334 54.1208C10.3743 55.9096 12.2242 56.6012 13.324 57.0133C13.5073 57.0822 13.6763 57.1433 13.8167 57.2057C15.3327 57.861 16.9482 58.2565 18.5955 58.3757C19.1969 58.4098 19.7945 58.2602 20.3089 57.9467C21.4282 57.1589 24.7562 51.8926 24.3545 49.9478C23.984 48.1486 21.046 45.8294 18.5331 45.3536C18.1977 45.2899 17.8506 45.2093 17.5022 45.1274C15.9695 44.766 14.3744 44.3942 13.1303 45.1807ZM16.9237 47.6585C17.3072 47.7469 17.6907 47.8353 18.0599 47.9055C19.5502 48.2814 20.8702 49.1489 21.8065 50.3677C21.1646 52.3343 20.169 54.167 18.8685 55.7757C17.4903 55.6967 16.137 55.3745 14.871 54.8241C14.6916 54.7461 14.481 54.6655 14.2457 54.5784C13.7878 54.4311 13.3509 54.2253 12.9457 53.9661C13.3233 51.842 13.8123 49.7391 14.4108 47.6663C14.4108 47.6468 14.4199 47.6286 14.4238 47.6091C14.4336 47.527 14.465 47.449 14.5148 47.3829C15.3269 47.3072 16.1459 47.401 16.9198 47.6585H16.9237Z" fill="white"/>
<path d="M3.4696 52.1936C2.75163 52.1972 2.16669 51.6181 2.1631 50.9001C2.15951 50.1822 2.73863 49.5972 3.4566 49.5936H3.4696C4.18757 49.5936 4.7696 50.1757 4.7696 50.8936C4.7696 51.6116 4.18757 52.1936 3.4696 52.1936Z" fill="white"/>
<path d="M21.9465 73.4361C21.9886 73.4629 22.032 73.4876 22.0765 73.5102C27.3242 76.0362 33.0732 77.3487 38.8972 77.3504C39.5464 77.3504 40.1964 77.3339 40.8472 77.301C40.8977 77.2988 40.9481 77.2941 40.998 77.2867C46.5364 77.0119 51.9502 75.5451 56.8697 72.9863C58.2018 72.2889 59.493 71.5163 60.7372 70.6723C60.7759 70.6501 60.8132 70.6258 60.849 70.5995C71.6551 63.3073 78.0934 51.09 78 38.054C77.9803 35.9309 76.2659 34.2136 74.1429 34.1904C69.8536 34.1728 65.9316 31.7664 63.9729 27.9504C63.6592 27.3418 63.4025 26.7056 63.2059 26.0498C63.0967 25.6883 62.8357 25.3922 62.4908 25.2385C62.1459 25.0847 61.7512 25.0886 61.4093 25.249C60.7774 25.5426 60.1259 25.792 59.4593 25.9952C53.7189 27.6469 47.5916 25.1742 44.6055 20.0009C44.4963 19.8202 44.4066 19.6434 44.3065 19.451C43.7353 18.3442 43.3318 17.1586 43.1092 15.9332C43.0451 15.5773 42.8358 15.2643 42.5314 15.0692C42.227 14.8741 41.8551 14.8145 41.505 14.9049C37.3426 15.9863 32.9888 14.0229 31.0439 10.1872C30.334 8.81471 29.98 7.28598 30.0143 5.74116C30.0464 4.43419 29.4198 3.19852 28.3464 2.45216C27.2904 1.71067 25.9321 1.55041 24.7324 2.02576C23.5156 2.50676 22.3027 3.06576 21.1249 3.66766C20.7479 3.86396 20.3566 4.06676 20.0459 4.26046C14.6921 7.21507 10.1204 11.4044 6.71053 16.4805C0.848045 25.1805 -1.2877 35.8653 0.779922 46.1504C0.853864 46.4935 1.06202 46.7929 1.358 46.9816C1.65398 47.1704 2.01317 47.2329 2.35552 47.1553C3.04166 46.9982 3.47357 46.3182 3.32402 45.6304C1.49924 36.5131 3.20699 27.0432 8.10153 19.1377C9.69423 19.9534 11.4154 20.489 13.1897 20.7211C13.6681 20.8121 14.1322 20.9018 14.5651 20.998L15.0578 21.1085C16.4173 21.4731 17.8119 21.6911 19.2178 21.7585C20.089 21.7829 20.9518 21.5823 21.7229 21.1761C23.9173 19.9723 24.4867 17.8429 24.7285 14.5695L24.7779 13.9481C24.982 11.3858 25.2836 7.51436 23.4285 5.44216C24.1786 5.08466 24.9352 4.74406 25.697 4.44246C26.086 4.28795 26.5268 4.34183 26.867 4.58546C27.2269 4.83107 27.4367 5.24326 27.4234 5.67876C27.3794 7.65868 27.8322 9.61807 28.7403 11.378C31.0128 15.8535 35.88 18.3883 40.8498 17.6843C41.1311 18.7091 41.5189 19.7016 42.0068 20.6457C42.129 20.8836 42.2447 21.1072 42.3721 21.3191C45.9642 27.5221 53.3211 30.479 60.2068 28.4873C60.5513 28.3807 60.8828 28.2702 61.2026 28.1506C61.3443 28.4873 61.4964 28.8162 61.6654 29.1412C64.0652 33.8178 68.8709 36.7676 74.1273 36.7904C74.8303 36.7996 75.3965 37.3703 75.3999 38.0735C75.4399 44.6995 73.6751 51.2113 70.2949 56.9105C68.8649 55.7691 67.1007 54.5705 65.7162 53.6696C64.5858 52.9498 63.1592 52.8806 61.9644 53.4876C54.3776 57.3668 54.115 58.2664 53.9239 58.919C53.4858 60.4088 54.7039 67.8786 56.3419 68.8913C56.4251 68.9433 56.8892 69.2306 57.5626 69.6206C56.9438 69.9885 56.3172 70.3499 55.6724 70.684C51.8574 72.6629 47.7187 73.9423 43.4524 74.4618C43.5432 74.2076 43.6145 73.9468 43.6656 73.6818C44.5652 68.851 42.0133 63.5587 39.854 62.0338C38.1523 60.8495 32.158 59.5274 29.2265 59.4884C27.9194 59.4894 26.6845 60.088 25.8738 61.1134C22.8708 65.0134 21.2432 67.98 20.991 69.9885C14.8509 66.5306 9.86372 61.3427 6.65072 55.071C6.32189 54.4327 5.5379 54.1818 4.89962 54.5107C4.26135 54.8395 4.01049 55.6235 4.33932 56.2618C8.17474 63.7562 14.359 69.7884 21.9465 73.4361ZM22.1831 13.7453L22.1337 14.3823C21.8737 17.8637 21.2549 18.4708 20.4697 18.9024C19.483 19.4432 17.7826 19.0584 15.6298 18.5735L15.1319 18.4604C14.6743 18.359 14.1842 18.2641 13.6798 18.1679C12.2573 17.9723 10.8709 17.5707 9.56403 16.9758C12.5579 12.8214 16.4063 9.35594 20.8506 6.81236C22.5107 7.48966 22.4444 10.4576 22.1831 13.7453ZM57.8499 66.7606C57.0067 64.5178 56.519 62.1572 56.4043 59.764C56.7111 59.4559 57.9916 58.4328 63.1448 55.7977C63.5129 55.6077 63.9539 55.6265 64.3045 55.8471C65.8871 56.8513 67.415 57.9392 68.8818 59.1062C66.475 62.5686 63.4836 65.5855 60.0417 68.0216C59.1239 67.5237 58.3088 67.0427 57.8499 66.7606ZM27.9239 62.7007C28.2328 62.3198 28.6934 62.094 29.1836 62.0832C32.3393 62.2384 35.4437 62.9422 38.3577 64.1632C39.4939 64.9653 41.8677 69.1292 41.1072 73.2021C40.9803 73.7642 40.7149 74.2857 40.335 74.7192C34.6341 74.9451 28.9608 73.8176 23.7795 71.4289C23.6749 71.1595 23.5957 70.881 23.5429 70.5969C23.4116 69.6648 24.7155 66.8646 27.9239 62.7007Z" fill="white"/>
</g>
<defs>
<clipPath id="clip0">
<rect width="78" height="78" fill="white"/>
</clipPath>
</defs>
</svg>
