<svg width="78" height="78" viewBox="0 0 78 78" fill="none" xmlns="http://www.w3.org/2000/svg">
<g clip-path="url(#clip0)">
<path d="M45.9296 72.8257C40.7036 71.3437 33.6186 72.0717 27.5346 69.8617C24.3635 68.8236 21.7114 66.6089 20.1246 63.6737C18.8937 64.1693 17.5976 64.4846 16.2766 64.6097C14.4989 65.0092 12.6683 65.1189 10.8556 64.9347C9.87115 64.8086 8.94957 64.3818 8.21659 63.7127C6.72159 62.2307 6.76059 59.8907 5.86359 58.0967C4.50497 55.3813 3.71323 52.4178 3.53659 49.3867C3.22459 43.7187 4.53759 37.9727 5.85059 32.4997C9.75059 16.1717 7.15059 15.5997 9.75059 10.3997C11.7526 6.39567 22.9846 3.58767 27.6906 2.67767C29.087 2.40347 30.522 2.91168 31.4346 4.00367L34.8406 8.09867C35.8417 9.28888 36.0361 10.9616 35.3346 12.3497L34.7496 13.2207C35.5366 13.7747 36.0664 14.6233 36.2186 15.5737C36.4125 16.5133 36.1837 17.4906 35.593 18.2466C35.0023 19.0025 34.1092 19.4607 33.1506 19.4997C31.9186 19.4645 30.7281 19.0465 29.7446 18.3037C28.1196 17.2767 26.2736 16.0937 21.4506 16.8997C20.1237 17.1592 18.7663 17.2248 17.4206 17.0947V17.1077C17.4112 18.7995 17.6165 20.4856 18.0316 22.1257C18.8183 25.2718 19.9656 28.3166 21.4506 31.1997C23.0779 34.6467 23.7513 38.467 23.4006 42.2627C25.0396 40.6928 27.0537 39.5694 29.2506 38.9997C34.4636 37.5047 40.0796 39.8577 43.9406 42.1587L45.9296 72.8257Z" fill="#FC89B1"/>
<path d="M13.5206 16.0806V17.1076C13.5112 18.7993 13.7165 20.4855 14.1316 22.1256C14.9183 25.2717 16.0656 28.3165 17.5506 31.1996C18.5682 33.2718 19.2053 35.51 19.4317 37.8075C19.5326 38.6283 20.0207 39.351 20.7445 39.751C21.4682 40.1511 22.3399 40.1801 23.0886 39.829C23.2082 39.7744 23.3291 39.7211 23.4539 39.6678C23.4134 36.7325 22.7296 33.8418 21.4506 31.1996C19.9656 28.3165 18.8183 25.2717 18.0316 22.1256C17.6165 20.4855 17.4112 18.7993 17.4206 17.1076V17.0946L13.5206 16.0806Z" fill="#F56597"/>
<path d="M30.811 38.6754C34.0871 39.2178 37.2237 40.4017 40.041 42.1594L41.9819 72.0893C43.3148 72.2341 44.6347 72.4806 45.93 72.8264L43.941 42.1594C40.4622 40.0859 35.5599 37.9812 30.811 38.6754Z" fill="#F56597"/>
<path d="M27.5348 4.00367L30.9408 8.09867C31.9419 9.28888 32.1363 10.9616 31.4348 12.3497L30.8498 13.2207C31.6369 13.7747 32.1666 14.6233 32.3188 15.5737C32.5311 16.8768 31.9941 18.1889 30.9291 18.9693C31.6171 19.3199 32.3786 19.5018 33.1508 19.4997C34.1094 19.4607 35.0025 19.0025 35.5932 18.2466C36.1839 17.4906 36.4127 16.5133 36.2188 15.5737C36.0666 14.6233 35.5369 13.7747 34.7498 13.2207L35.3348 12.3497C36.0363 10.9616 35.8419 9.28888 34.8408 8.09867L31.4348 4.00367C30.5222 2.91168 29.0873 2.40347 27.6908 2.67767C27.2436 2.76477 26.7223 2.87267 26.1698 2.99357C26.6944 3.22435 27.1608 3.56946 27.5348 4.00367Z" fill="#F56597"/>
<path d="M29.745 18.3037C27.964 19.3827 23.44 21.9827 20.775 22.2557C19.8595 22.3562 18.9339 22.3123 18.032 22.1257C17.6169 20.4856 17.4116 18.7994 17.421 17.1077V17.0947C18.7667 17.2248 20.1241 17.1591 21.451 16.8997C26.274 16.0937 28.12 17.2767 29.745 18.3037Z" fill="#F56597"/>
<path d="M74.5301 20.7869L74.4521 20.7999H43.8501L43.7721 20.7869C43.873 19.8725 44.2339 19.0063 44.8121 18.2909L49.8951 12.1678C50.1416 11.8696 50.5091 11.6978 50.8961 11.6998H67.4061C67.7931 11.6978 68.1605 11.8696 68.4071 12.1678L73.4901 18.2909C74.0683 19.0063 74.4292 19.8725 74.5301 20.7869Z" fill="#FC89B1"/>
<path d="M73.4899 18.291L68.4069 12.168C68.1603 11.8697 67.7928 11.6979 67.4059 11.7L63.5059 11.7C63.8928 11.6979 64.2603 11.8697 64.5069 12.168L69.5899 18.291C70.1681 19.0064 70.529 19.8727 70.6299 20.787L70.5519 20.8H74.4519L74.5299 20.787C74.429 19.8727 74.0681 19.0064 73.4899 18.291Z" fill="#F56597"/>
<path d="M74.738 36.3996L72.203 75.4776C72.1617 76.165 71.5916 76.7009 70.903 76.6996H47.399C46.7104 76.7009 46.1403 76.165 46.099 75.4776L45.93 72.8256L43.941 42.1586L43.564 36.3996C43.5518 34.9232 44.212 33.5215 45.358 32.5906C46.84 31.2126 49.232 29.5356 47.425 27.3516C46.8717 26.7814 46.2667 26.2635 45.618 25.8046C44.2058 24.5435 43.5137 22.6623 43.772 20.7866L43.85 20.7996H74.452L74.53 20.7866C74.7883 22.6623 74.0962 24.5435 72.684 25.8046C72.0353 26.2635 71.4304 26.7814 70.877 27.3516C69.07 29.5356 71.462 31.2126 72.944 32.5906C74.09 33.5215 74.7502 34.9232 74.738 36.3996Z" fill="#FC89B1"/>
<path d="M43.8493 20.7996L43.7713 20.7866L43.77 20.7996H43.8493Z" fill="#F56597"/>
<path d="M72.9434 32.5906C71.4614 31.2126 69.0694 29.5356 70.8764 27.3516C71.4298 26.7814 72.0347 26.2635 72.6834 25.8046C74.0956 24.5435 74.7877 22.6623 74.5294 20.7866L74.4514 20.7996H70.6307C70.8839 22.6712 70.1918 24.5464 68.7834 25.8046C68.1347 26.2635 67.5298 26.7814 66.9764 27.3516C65.1694 29.5356 67.5614 31.2126 69.0434 32.5906C70.1894 33.5215 70.8496 34.9232 70.8374 36.3996L68.3024 75.4776C68.2611 76.165 67.691 76.7009 67.0024 76.6996H70.9024C71.591 76.7009 72.1611 76.165 72.2024 75.4776L74.7374 36.3996C74.7496 34.9232 74.0894 33.5215 72.9434 32.5906Z" fill="#F56597"/>
<path d="M53.9507 6.49963H64.3507V11.6996H53.9507V6.49963Z" fill="#F56597"/>
<path d="M66.9503 3.89996C66.9539 4.58973 66.6771 5.25136 66.1833 5.73296C65.7017 6.22678 65.04 6.50363 64.3503 6.49996H53.9503C52.5161 6.49568 51.3545 5.33412 51.3503 3.89996C51.3466 3.21019 51.6234 2.54856 52.1173 2.06696C52.5989 1.57315 53.2605 1.29629 53.9503 1.29996H64.3503C65.7844 1.30425 66.946 2.4658 66.9503 3.89996Z" fill="#FC89B1"/>
<path d="M64.3504 1.30017H60.4504C61.8846 1.30445 63.0462 2.46601 63.0504 3.90017C63.0541 4.58994 62.7773 5.25157 62.2834 5.73317C61.8018 6.22699 61.1402 6.50384 60.4504 6.50021L64.3504 6.50017C65.0402 6.50384 65.7018 6.22699 66.1834 5.73317C66.6773 5.25157 66.9541 4.58994 66.9504 3.90017C66.9462 2.46601 65.7846 1.30445 64.3504 1.30017Z" fill="#F56597"/>
<path d="M12.1167 63.7129C10.6217 62.2309 10.6607 59.8909 9.76373 58.0969C5.78313 50.0967 7.53033 41.7533 9.75073 32.4999C13.6507 16.1719 11.0507 15.5999 13.6507 10.3999C15.4629 6.77677 24.8177 4.13777 30.0697 2.98987C29.3296 2.63716 28.4968 2.52794 27.6907 2.67787C27.5607 2.70257 26.0397 2.99377 26.1697 2.99377C20.9177 4.13777 11.5629 6.77677 9.75073 10.3999C7.15073 15.5999 9.75073 16.1719 5.85073 32.4999C3.63033 41.7533 1.88313 50.0967 5.86373 58.0969C6.76073 59.8909 6.72173 62.2309 8.21673 63.7129C9.75983 65.2274 12.2831 65.1637 14.5152 64.8738C13.6185 64.7325 12.7839 64.3285 12.1167 63.7129Z" fill="#F56597"/>
<path d="M6.52765 22.1158L9.10555 22.4577C8.61503 25.9351 7.95076 29.3857 7.11525 32.7966L4.58545 32.1934C5.40157 28.869 6.04979 25.5055 6.52765 22.1158Z" fill="#F56597"/>
<path d="M38.0641 38.0753C35.1039 37.0771 31.917 36.9624 28.8926 37.7451C27.4286 38.1545 26.0314 38.7732 24.7443 39.582C24.6977 36.4722 23.9704 33.4105 22.6136 30.612C21.4685 28.3602 20.519 26.0142 19.7757 23.5998C20.1535 23.5993 20.5309 23.5798 20.9067 23.5413C23.4716 23.2813 27.3014 21.2468 29.7363 19.8129C30.7601 20.4534 31.9425 20.7952 33.1501 20.7996C34.3988 20.8108 35.5885 20.2692 36.4001 19.3202C37.3134 18.228 37.7152 16.7969 37.5038 15.389C37.3777 14.5224 37.0054 13.7102 36.4313 13.049C36.456 13.01 36.4794 12.971 36.5002 12.9307C37.4359 11.0808 37.1803 8.85145 35.8502 7.26137L32.4429 3.16637C31.2252 1.70666 29.3081 1.02773 27.4431 1.39577C23.6393 2.13157 11.0384 4.90577 8.59312 9.81327C8.0882 10.8092 7.70121 11.8606 7.44002 12.9463C7.22101 14.0074 7.09056 15.0849 7.05002 16.1677C6.94212 18.1996 6.79912 20.1496 6.52742 22.1152C6.44122 22.82 6.93052 23.4659 7.63242 23.5738C7.97584 23.6247 8.32529 23.5349 8.60158 23.3247C8.87788 23.1145 9.05764 22.8016 9.10012 22.4571C9.38222 20.4213 9.53432 18.3296 9.63832 16.3172C9.67055 15.377 9.78144 14.4412 9.96982 13.5196C10.1851 12.6381 10.5014 11.7844 10.9123 10.9755C12.3319 8.13367 20.7325 5.34127 27.9423 3.95547C28.8728 3.77205 29.8293 4.10983 30.4383 4.83687L33.8469 8.93447C34.4142 9.62076 34.5863 10.5516 34.3019 11.3954C33.581 11.0198 32.8398 10.6847 32.0815 10.3918C31.7474 10.2618 31.4224 10.1318 31.1208 10.0018C29.644 9.35177 28.2712 8.80837 26.9257 8.33517C26.4875 8.1812 26.0005 8.27271 25.648 8.57523C25.2956 8.87774 25.1313 9.3453 25.2171 9.80178C25.3028 10.2583 25.6256 10.6343 26.0638 10.7883C27.3469 11.2394 28.6638 11.7607 30.0756 12.3821C30.4019 12.5251 30.7516 12.6655 31.1156 12.8111C33.2216 13.6574 34.7283 14.3711 34.9324 15.7725C35.0399 16.4334 34.8592 17.1087 34.4358 17.6276C34.1149 18.0017 33.6429 18.2117 33.1501 18.1996C32.1471 18.1593 31.1826 17.802 30.3954 17.1791C28.6664 16.0923 26.5097 14.739 21.2369 15.6191C17.4578 16.247 15.9732 15.5398 15.4246 15.0627C14.8811 14.6224 14.0867 14.6912 13.6268 15.2182C13.167 15.7452 13.2066 16.5416 13.7164 17.0205C14.4165 17.603 15.2476 18.0068 16.1383 18.197C16.2203 19.596 16.4261 20.9851 16.7532 22.3479L16.761 22.3843C17.5674 25.6431 18.7506 28.7969 20.2866 31.782C21.7563 34.8858 22.3887 38.3201 22.1209 41.7439C20.1892 43.8479 19.0351 46.5493 18.8501 49.3996C18.8501 50.1175 19.4322 50.6996 20.1501 50.6996C20.8681 50.6996 21.4501 50.1175 21.4501 49.3996C21.4501 49.332 21.5437 42.5538 29.6089 40.2489C32.1519 39.6048 34.8272 39.7128 37.3101 40.5596C37.9952 40.7618 38.7152 40.3734 38.9224 39.6898C39.1295 39.0061 38.7463 38.2834 38.0641 38.0714V38.0753ZM21.6646 18.1762C23.4416 17.7675 25.2944 17.8294 27.0401 18.3556C25.0686 19.5731 22.9072 20.4519 20.6454 20.9556C20.137 21.0038 19.6251 21.0038 19.1166 20.9556C18.9478 20.1286 18.8301 19.292 18.7643 18.4505C19.7367 18.4334 20.7063 18.3417 21.6646 18.1762Z" fill="white"/>
<path d="M6.98706 28.7163C6.26909 28.7199 5.68415 28.1408 5.68056 27.4228C5.67697 26.7049 6.25609 26.1199 6.97406 26.1163H6.98706C7.70503 26.1163 8.28706 26.6984 8.28706 27.4163C8.28706 28.1343 7.70503 28.7163 6.98706 28.7163Z" fill="white"/>
<path d="M35.8806 70.2068C33.1943 70.014 30.5422 69.49 27.9844 68.6468C25.1281 67.7175 22.7346 65.7323 21.2933 63.0971C20.9721 62.4562 20.1929 62.1963 19.5513 62.516C18.5526 62.9167 17.5022 63.174 16.4313 63.2804L15.6513 63.4013C14.1423 63.7228 12.5928 63.8105 11.0571 63.6613C10.3434 63.5729 9.67362 63.269 9.13701 62.7903C8.47896 61.9742 8.04401 61.0013 7.87471 59.9667C7.67535 59.1264 7.39272 58.3081 7.03101 57.524C5.74559 54.9668 4.9983 52.1732 4.83531 49.3158C4.54541 44.0469 5.69591 38.7208 7.11551 32.8058C7.28279 32.1072 6.85209 31.4053 6.15351 31.238C5.45492 31.0707 4.75299 31.5014 4.58571 32.2C3.12061 38.3113 1.92851 43.8337 2.23921 49.4549C2.42307 52.6659 3.26374 55.8052 4.70921 58.6784C4.99125 59.3098 5.21239 59.9666 5.36961 60.6401C5.64195 62.1217 6.31143 63.5015 7.30661 64.6324C8.22517 65.4985 9.39236 66.0546 10.6437 66.2223C12.45 66.4245 14.277 66.3367 16.0556 65.9623L16.8174 65.844C17.7396 65.7258 18.652 65.5407 19.5474 65.2902C21.3388 68.0134 23.9948 70.0544 27.0874 71.0843C29.8496 72.0083 32.716 72.5847 35.6206 72.8003C35.6639 72.8029 35.7073 72.8029 35.7506 72.8003C36.4433 72.8004 37.0145 72.2572 37.0491 71.5654C37.0838 70.8735 36.5699 70.276 35.8806 70.2068Z" fill="white"/>
<path d="M36.3892 65.0309C34.1359 64.873 31.9099 64.4444 29.7592 63.7543C28.4741 63.329 27.3273 62.5656 26.439 61.5443C26.1515 61.1794 25.6912 60.9957 25.2315 61.0623C24.7718 61.1288 24.3825 61.4356 24.2103 61.867C24.0381 62.2984 24.1092 62.7888 24.3967 63.1537C25.583 64.5572 27.1302 65.61 28.8713 66.1983C31.2275 66.9665 33.6688 67.4437 36.1409 67.6192C36.1838 67.6192 36.2267 67.6257 36.2709 67.6257C36.7353 67.6489 37.1769 67.4226 37.4292 67.0319C37.6815 66.6413 37.7063 66.1458 37.4942 65.7319C37.2821 65.3181 36.8653 65.0489 36.4009 65.0257L36.3892 65.0309Z" fill="white"/>
<path d="M10.6475 60.2068C10.8041 60.7115 11.2507 61.0713 11.7772 61.1168C11.9683 61.1324 12.1672 61.1402 12.3674 61.1402C13.3368 61.1096 14.3024 61.0053 15.256 60.8282L16.036 60.7073C16.7341 60.5876 17.2079 59.9312 17.1016 59.2309C16.9954 58.5307 16.3481 58.0444 15.646 58.1372L14.8478 58.2607C14.1419 58.3712 13.4672 58.4778 12.8731 58.5207C12.5922 57.3778 12.1954 56.2666 11.6888 55.2044C11.3598 54.579 10.5916 54.331 9.95902 54.6459C9.32646 54.9607 9.06122 55.7232 9.3618 56.3627C9.79872 57.2986 10.141 58.2758 10.3836 59.2799C10.4577 59.5568 10.5578 59.9208 10.6475 60.2068Z" fill="white"/>
<path d="M73.3106 31.1649C71.3606 29.4281 71.2527 28.9432 71.8806 28.1814C72.3861 27.6829 72.9304 27.2251 73.5082 26.8125C76.2328 24.433 76.6625 20.3554 74.4936 17.4603L69.4132 11.3399C68.9198 10.7426 68.1847 10.3977 67.4099 10.4H65.651V7.56081C67.4405 6.9305 68.5145 5.10141 68.193 3.23158C67.8715 1.36174 66.2483 -0.00358794 64.351 7.08279e-06H53.951C52.0537 -0.00358794 50.4305 1.36174 50.109 3.23158C49.7875 5.10141 50.8615 6.9305 52.651 7.56081V10.4H50.896C50.1221 10.3976 49.3877 10.7414 48.894 11.3373L43.811 17.4577C41.6424 20.3494 42.0667 24.4233 44.7847 26.806C45.3656 27.2201 45.9125 27.68 46.4201 28.1814C47.0519 28.9432 46.9401 29.4268 44.9901 31.1649C44.8081 31.3261 44.6313 31.4847 44.461 31.6433C43.0234 32.834 42.2117 34.6185 42.2588 36.4845L44.7951 75.5755C44.8838 76.9443 46.0235 78.007 47.3951 78H70.9069C72.2817 78.0027 73.421 76.9346 73.5069 75.5625L76.0406 36.4884C76.0871 34.6182 75.2724 32.8302 73.8306 31.6381C73.6681 31.4847 73.4913 31.33 73.3106 31.1649ZM53.951 2.60001H64.351C65.069 2.60001 65.651 3.18204 65.651 3.90001C65.651 4.61798 65.069 5.20001 64.351 5.20001H53.951C53.233 5.20001 52.651 4.61798 52.651 3.90001C52.651 3.18204 53.233 2.60001 53.951 2.60001ZM55.251 7.80001H63.051V10.4H55.251V7.80001ZM50.896 13H67.406C73.1364 19.903 72.476 19.0723 72.736 19.5H68.9465L66.7365 16.1785C66.338 15.5812 65.5307 15.4199 64.9334 15.8184C64.336 16.2169 64.1748 17.0242 64.5733 17.6215L65.8226 19.5H60.451V16.9C60.451 16.182 59.869 15.6 59.151 15.6C58.433 15.6 57.851 16.182 57.851 16.9V19.5H52.4794L53.7326 17.6215C53.9903 17.2351 54.0224 16.7405 53.8166 16.3241C53.6109 15.9076 53.1985 15.6326 52.735 15.6026C52.2715 15.5725 51.8271 15.7921 51.5694 16.1785L49.3555 19.5H45.566C45.8273 19.0684 45.1617 19.9056 50.896 13ZM70.9069 75.4H47.3964L44.8601 36.3116C44.8758 35.2262 45.3849 34.2071 46.2433 33.5426C46.3967 33.3996 46.5605 33.254 46.7282 33.1032C48.1582 31.8227 50.8362 29.4372 48.426 26.5213C47.8228 25.8821 47.1573 25.3047 46.4396 24.7975C45.6605 24.1022 45.1714 23.1393 45.0694 22.1H73.2365C73.1327 23.143 72.6403 24.1087 71.8572 24.8053C71.1421 25.3089 70.4796 25.8834 69.8799 26.52C67.4684 29.4346 70.1399 31.8201 71.579 33.1019C71.7454 33.2514 71.9092 33.397 72.0587 33.5361C72.9231 34.2011 73.436 35.225 73.451 36.3155L70.9069 75.4Z" fill="white"/>
<path d="M58.501 70.1998H52.2701L51.6903 61.2467C51.6436 60.5288 51.0238 59.9846 50.3058 60.0312C49.5878 60.0779 49.0436 60.6978 49.0903 61.4157L49.7494 71.5843C49.794 72.2691 50.3632 72.8013 51.0494 72.7998H58.501C59.219 72.7998 59.801 72.2178 59.801 71.4998C59.801 70.7819 59.219 70.1998 58.501 70.1998Z" fill="white"/>
<path d="M25.326 50.6829H25.3507C26.0515 50.6779 26.6243 50.1223 26.6507 49.4219C26.6507 49.301 26.8132 46.4501 31.0434 45.2411C32.6261 44.8887 34.2762 44.9919 35.8027 45.5388C36.4878 45.7411 37.2077 45.3527 37.4149 44.6691C37.6221 43.9854 37.2388 43.2627 36.5567 43.0506C34.5531 42.353 32.3912 42.2456 30.3284 42.7412C24.1222 44.5157 24.0507 49.3452 24.0507 49.3998C24.0542 50.104 24.6218 50.6751 25.326 50.6829Z" fill="white"/>
</g>
<defs>
<clipPath id="clip0">
<rect width="78" height="78" fill="white"/>
</clipPath>
</defs>
</svg>
