<svg width="78" height="78" viewBox="0 0 78 78" fill="none" xmlns="http://www.w3.org/2000/svg">
<g clip-path="url(#clip0)">
<path d="M45.9295 72.8257C40.7035 71.3437 33.6185 72.0717 27.5345 69.8617C24.3635 68.8236 21.7113 66.6089 20.1245 63.6737C18.8936 64.1693 17.5976 64.4846 16.2765 64.6097C14.4988 65.0092 12.6683 65.1189 10.8555 64.9347C9.8711 64.8086 8.94953 64.3818 8.21655 63.7127C6.72155 62.2307 6.76055 59.8907 5.86355 58.0967C4.50492 55.3813 3.71319 52.4178 3.53655 49.3867C3.22455 43.7187 4.53755 37.9727 5.85055 32.4997C9.75055 16.1717 7.15055 15.5997 9.75055 10.3997C11.7525 6.39567 22.9845 3.58767 27.6905 2.67767C29.087 2.40347 30.522 2.91168 31.4345 4.00367L34.8405 8.09867C35.8417 9.28888 36.036 10.9616 35.3345 12.3497L34.7495 13.2207C35.5366 13.7747 36.0664 14.6233 36.2185 15.5737C36.4124 16.5133 36.1837 17.4906 35.5929 18.2466C35.0022 19.0025 34.1091 19.4607 33.1505 19.4997C31.9185 19.4645 30.7281 19.0465 29.7445 18.3037C28.1195 17.2767 26.2735 16.0937 21.4505 16.8997C20.1237 17.1592 18.7662 17.2248 17.4205 17.0947V17.1077C17.4111 18.7995 17.6164 20.4856 18.0315 22.1257C18.8183 25.2718 19.9656 28.3166 21.4505 31.1997C23.0778 34.6467 23.7512 38.467 23.4005 42.2627C25.0395 40.6928 27.0537 39.5694 29.2505 38.9997C34.4635 37.5047 40.0795 39.8577 43.9405 42.1587L45.9295 72.8257Z" fill="url(#paint0_linear)"/>
<path d="M13.5206 16.0806V17.1076C13.5112 18.7993 13.7165 20.4855 14.1316 22.1256C14.9183 25.2717 16.0656 28.3165 17.5506 31.1996C18.5682 33.2718 19.2053 35.51 19.4317 37.8075C19.5326 38.6283 20.0207 39.351 20.7445 39.751C21.4682 40.1511 22.3399 40.1801 23.0886 39.829C23.2082 39.7744 23.3291 39.7211 23.4539 39.6678C23.4134 36.7325 22.7296 33.8418 21.4506 31.1996C19.9656 28.3165 18.8183 25.2717 18.0316 22.1256C17.6165 20.4855 17.4112 18.7993 17.4206 17.1076V17.0946L13.5206 16.0806Z" fill="#FFF6F5"/>
<path d="M30.8109 38.6754C34.087 39.2178 37.2236 40.4017 40.0409 42.1594L41.9818 72.0893C43.3147 72.2341 44.6346 72.4806 45.9299 72.8264L43.9409 42.1594C40.4621 40.0859 35.5598 37.9812 30.8109 38.6754Z" fill="#FFF6F5"/>
<path d="M27.5347 4.00367L30.9407 8.09867C31.9418 9.28888 32.1362 10.9616 31.4347 12.3497L30.8497 13.2207C31.6368 13.7747 32.1665 14.6233 32.3187 15.5737C32.531 16.8768 31.994 18.1889 30.929 18.9693C31.617 19.3199 32.3785 19.5018 33.1507 19.4997C34.1093 19.4607 35.0024 19.0025 35.5931 18.2466C36.1839 17.4906 36.4126 16.5133 36.2187 15.5737C36.0665 14.6233 35.5368 13.7747 34.7497 13.2207L35.3347 12.3497C36.0362 10.9616 35.8418 9.28888 34.8407 8.09867L31.4347 4.00367C30.5221 2.91168 29.0872 2.40347 27.6907 2.67767C27.2435 2.76477 26.7222 2.87267 26.1697 2.99357C26.6943 3.22435 27.1607 3.56946 27.5347 4.00367Z" fill="#FFF6F5"/>
<path d="M29.7448 18.3037C27.9639 19.3827 23.4399 21.9827 20.7749 22.2557C19.8594 22.3562 18.9337 22.3123 18.0319 22.1257C17.6168 20.4856 17.4114 18.7994 17.4209 17.1077V17.0947C18.7666 17.2248 20.124 17.1591 21.4509 16.8997C26.2739 16.0937 28.1199 17.2767 29.7448 18.3037Z" fill="#FFE9F0"/>
<path d="M74.5301 20.7869L74.4521 20.7999H43.8501L43.7721 20.7869C43.8729 19.8725 44.2339 19.0063 44.8121 18.2909L49.8951 12.1678C50.1416 11.8696 50.5091 11.6978 50.8961 11.6998H67.4061C67.793 11.6978 68.1605 11.8696 68.4071 12.1678L73.4901 18.2909C74.0683 19.0063 74.4292 19.8725 74.5301 20.7869Z" fill="url(#paint1_linear)"/>
<path d="M73.4899 18.291L68.4069 12.168C68.1603 11.8697 67.7928 11.6979 67.4059 11.7L63.5059 11.7C63.8928 11.6979 64.2603 11.8697 64.5069 12.168L69.5899 18.291C70.1681 19.0064 70.529 19.8727 70.6299 20.787L70.5519 20.8H74.4519L74.5299 20.787C74.429 19.8727 74.0681 19.0064 73.4899 18.291Z" fill="#FFF6F5"/>
<path d="M74.7379 36.3996L72.2029 75.4776C72.1616 76.165 71.5915 76.7009 70.9029 76.6996H47.3989C46.7104 76.7009 46.1402 76.165 46.0989 75.4776L45.9299 72.8256L43.9409 42.1586L43.5639 36.3996C43.5517 34.9232 44.2119 33.5215 45.3579 32.5906C46.8399 31.2126 49.2319 29.5356 47.4249 27.3516C46.8716 26.7814 46.2667 26.2635 45.6179 25.8046C44.2057 24.5435 43.5137 22.6623 43.7719 20.7866L43.8499 20.7996H74.4519L74.53 20.7866C74.7882 22.6623 74.0962 24.5435 72.6839 25.8046C72.0352 26.2635 71.4303 26.7814 70.8769 27.3516C69.0699 29.5356 71.4619 31.2126 72.9439 32.5906C74.09 33.5215 74.7502 34.9232 74.7379 36.3996Z" fill="url(#paint2_linear)"/>
<path d="M43.8492 20.7996L43.7712 20.7866L43.7699 20.7996H43.8492Z" fill="#FFF6F5"/>
<path d="M72.9434 32.5906C71.4614 31.2126 69.0694 29.5356 70.8764 27.3516C71.4298 26.7814 72.0347 26.2635 72.6834 25.8046C74.0956 24.5435 74.7877 22.6623 74.5294 20.7866L74.4514 20.7996H70.6307C70.8839 22.6712 70.1918 24.5464 68.7834 25.8046C68.1347 26.2635 67.5298 26.7814 66.9764 27.3516C65.1694 29.5356 67.5614 31.2126 69.0434 32.5906C70.1894 33.5215 70.8496 34.9232 70.8374 36.3996L68.3024 75.4776C68.2611 76.165 67.691 76.7009 67.0024 76.6996H70.9024C71.591 76.7009 72.1611 76.165 72.2024 75.4776L74.7374 36.3996C74.7496 34.9232 74.0894 33.5215 72.9434 32.5906Z" fill="#FFF6F5"/>
<path d="M53.9506 6.49963H64.3506V11.6996H53.9506V6.49963Z" fill="#FFE9F0"/>
<path d="M66.9502 3.89996C66.9539 4.58973 66.677 5.25136 66.1832 5.73296C65.7016 6.22678 65.04 6.50363 64.3502 6.49996H53.9502C52.5161 6.49568 51.3545 5.33412 51.3502 3.89996C51.3466 3.21019 51.6234 2.54856 52.1172 2.06696C52.5988 1.57315 53.2605 1.29629 53.9502 1.29996H64.3502C65.7844 1.30425 66.9459 2.4658 66.9502 3.89996Z" fill="url(#paint3_linear)"/>
<path d="M64.3504 1.30017H60.4504C61.8846 1.30445 63.0462 2.46601 63.0504 3.90017C63.0541 4.58994 62.7773 5.25157 62.2834 5.73317C61.8018 6.22699 61.1402 6.50384 60.4504 6.50021L64.3504 6.50017C65.0402 6.50384 65.7018 6.22699 66.1834 5.73317C66.6773 5.25157 66.9541 4.58994 66.9504 3.90017C66.9462 2.46601 65.7846 1.30445 64.3504 1.30017Z" fill="#FFF6F5"/>
<path d="M12.1167 63.7129C10.6217 62.2309 10.6607 59.8909 9.76365 58.0969C5.78305 50.0967 7.53025 41.7533 9.75065 32.4999C13.6507 16.1719 11.0507 15.5999 13.6507 10.3999C15.4629 6.77677 24.8177 4.13777 30.0697 2.98987C29.3295 2.63716 28.4967 2.52794 27.6907 2.67787C27.5607 2.70257 26.0397 2.99377 26.1697 2.99377C20.9177 4.13777 11.5629 6.77677 9.75065 10.3999C7.15065 15.5999 9.75065 16.1719 5.85065 32.4999C3.63025 41.7533 1.88305 50.0967 5.86365 58.0969C6.76065 59.8909 6.72165 62.2309 8.21665 63.7129C9.75975 65.2274 12.2831 65.1637 14.5152 64.8738C13.6185 64.7325 12.7838 64.3285 12.1167 63.7129Z" fill="white"/>
<path d="M6.52765 22.1158L9.10555 22.4577C8.61503 25.9351 7.95076 29.3857 7.11525 32.7966L4.58545 32.1934C5.40157 28.869 6.04979 25.5055 6.52765 22.1158Z" fill="white"/>
<path d="M38.064 38.0753C35.1038 37.0771 31.9169 36.9624 28.8925 37.7451C27.4286 38.1545 26.0314 38.7732 24.7442 39.582C24.6976 36.4722 23.9703 33.4105 22.6135 30.612C21.4684 28.3602 20.5189 26.0142 19.7756 23.5998C20.1534 23.5993 20.5309 23.5798 20.9066 23.5413C23.4715 23.2813 27.3013 21.2468 29.7362 19.8129C30.76 20.4534 31.9424 20.7952 33.15 20.7996C34.3987 20.8108 35.5885 20.2692 36.4 19.3202C37.3134 18.228 37.7151 16.7969 37.5037 15.389C37.3776 14.5224 37.0053 13.7102 36.4312 13.049C36.4559 13.01 36.4793 12.971 36.5001 12.9307C37.4359 11.0808 37.1802 8.85145 35.8501 7.26137L32.4428 3.16637C31.2252 1.70666 29.308 1.02773 27.443 1.39577C23.6392 2.13157 11.0383 4.90577 8.59304 9.81327C8.08812 10.8092 7.70114 11.8606 7.43994 12.9463C7.22093 14.0074 7.09048 15.0849 7.04994 16.1677C6.94204 18.1996 6.79904 20.1496 6.52734 22.1152C6.44114 22.82 6.93045 23.4659 7.63234 23.5738C7.97576 23.6247 8.32521 23.5349 8.60151 23.3247C8.8778 23.1145 9.05756 22.8016 9.10004 22.4571C9.38214 20.4213 9.53424 18.3296 9.63824 16.3172C9.67047 15.377 9.78136 14.4412 9.96974 13.5196C10.1851 12.6381 10.5013 11.7844 10.9122 10.9755C12.3318 8.13367 20.7324 5.34127 27.9422 3.95547C28.8727 3.77205 29.8293 4.10983 30.4382 4.83687L33.8468 8.93447C34.4142 9.62076 34.5863 10.5516 34.3018 11.3954C33.581 11.0198 32.8397 10.6847 32.0814 10.3918C31.7473 10.2618 31.4223 10.1318 31.1207 10.0018C29.6439 9.35177 28.2711 8.80837 26.9256 8.33517C26.4874 8.1812 26.0004 8.27271 25.6479 8.57523C25.2955 8.87774 25.1312 9.3453 25.217 9.80178C25.3028 10.2583 25.6255 10.6343 26.0637 10.7883C27.3468 11.2394 28.6637 11.7607 30.0755 12.3821C30.4018 12.5251 30.7515 12.6655 31.1155 12.8111C33.2215 13.6574 34.7282 14.3711 34.9323 15.7725C35.0399 16.4334 34.8591 17.1087 34.4357 17.6276C34.1149 18.0017 33.6428 18.2117 33.15 18.1996C32.147 18.1593 31.1826 17.802 30.3953 17.1791C28.6663 16.0923 26.5096 14.739 21.2368 15.6191C17.4577 16.247 15.9731 15.5398 15.4245 15.0627C14.881 14.6224 14.0866 14.6912 13.6268 15.2182C13.1669 15.7452 13.2065 16.5416 13.7163 17.0205C14.4164 17.603 15.2476 18.0068 16.1382 18.197C16.2202 19.596 16.426 20.9851 16.7531 22.3479L16.7609 22.3843C17.5673 25.6431 18.7505 28.7969 20.2865 31.782C21.7562 34.8858 22.3886 38.3201 22.1208 41.7439C20.1892 43.8479 19.035 46.5493 18.85 49.3996C18.85 50.1175 19.4321 50.6996 20.15 50.6996C20.868 50.6996 21.45 50.1175 21.45 49.3996C21.45 49.332 21.5436 42.5538 29.6088 40.2489C32.1519 39.6048 34.8272 39.7128 37.31 40.5596C37.9952 40.7618 38.7151 40.3734 38.9223 39.6898C39.1295 39.0061 38.7462 38.2834 38.064 38.0714V38.0753ZM21.6645 18.1762C23.4415 17.7675 25.2943 17.8294 27.04 18.3556C25.0686 19.5731 22.9071 20.4519 20.6453 20.9556C20.1369 21.0038 19.625 21.0038 19.1165 20.9556C18.9477 20.1286 18.83 19.292 18.7642 18.4505C19.7366 18.4334 20.7062 18.3417 21.6645 18.1762Z" fill="#EE3675"/>
<path d="M6.98697 28.7163C6.269 28.7199 5.68406 28.1408 5.68047 27.4228C5.67688 26.7049 6.256 26.1199 6.97397 26.1163H6.98697C7.70494 26.1163 8.28697 26.6984 8.28697 27.4163C8.28697 28.1343 7.70494 28.7163 6.98697 28.7163Z" fill="#EE3675"/>
<path d="M35.8806 70.2068C33.1943 70.014 30.5421 69.49 27.9844 68.6468C25.1281 67.7175 22.7346 65.7323 21.2933 63.0971C20.9721 62.4562 20.1928 62.1963 19.5513 62.516C18.5525 62.9167 17.5021 63.174 16.4313 63.2804L15.6513 63.4013C14.1422 63.7228 12.5927 63.8105 11.0571 63.6613C10.3434 63.5729 9.67357 63.269 9.13696 62.7903C8.47892 61.9742 8.04397 61.0013 7.87466 59.9667C7.67531 59.1264 7.39268 58.3081 7.03096 57.524C5.74555 54.9668 4.99825 52.1732 4.83526 49.3158C4.54536 44.0469 5.69586 38.7208 7.11546 32.8058C7.28275 32.1072 6.85205 31.4053 6.15346 31.238C5.45487 31.0707 4.75295 31.5014 4.58566 32.2C3.12056 38.3113 1.92846 43.8337 2.23916 49.4549C2.42303 52.6659 3.26369 55.8052 4.70916 58.6784C4.9912 59.3098 5.21234 59.9666 5.36956 60.6401C5.6419 62.1217 6.31138 63.5015 7.30656 64.6324C8.22513 65.4985 9.39232 66.0546 10.6437 66.2223C12.45 66.4245 14.277 66.3367 16.0556 65.9623L16.8174 65.844C17.7396 65.7258 18.652 65.5407 19.5474 65.2902C21.3388 68.0134 23.9947 70.0544 27.0874 71.0843C29.8495 72.0083 32.716 72.5847 35.6206 72.8003C35.6639 72.8029 35.7073 72.8029 35.7506 72.8003C36.4433 72.8004 37.0144 72.2572 37.0491 71.5654C37.0838 70.8735 36.5698 70.276 35.8806 70.2068Z" fill="#EE3675"/>
<path d="M36.3891 65.0309C34.1358 64.873 31.9098 64.4444 29.759 63.7543C28.474 63.329 27.3271 62.5656 26.4388 61.5443C26.1514 61.1794 25.6911 60.9957 25.2314 61.0623C24.7717 61.1288 24.3824 61.4356 24.2102 61.867C24.038 62.2984 24.1091 62.7888 24.3965 63.1537C25.5829 64.5572 27.1301 65.61 28.8711 66.1983C31.2274 66.9665 33.6687 67.4437 36.1407 67.6192C36.1837 67.6192 36.2266 67.6257 36.2708 67.6257C36.7352 67.6489 37.1768 67.4226 37.4291 67.0319C37.6814 66.6413 37.7062 66.1458 37.4941 65.7319C37.282 65.3181 36.8652 65.0489 36.4008 65.0257L36.3891 65.0309Z" fill="#EE3675"/>
<path d="M10.6474 60.2068C10.804 60.7115 11.2506 61.0713 11.7771 61.1168C11.9682 61.1324 12.1671 61.1402 12.3673 61.1402C13.3367 61.1096 14.3024 61.0053 15.2559 60.8282L16.0359 60.7073C16.734 60.5876 17.2078 59.9312 17.1016 59.2309C16.9953 58.5307 16.3481 58.0444 15.6459 58.1372L14.8477 58.2607C14.1418 58.3712 13.4671 58.4778 12.873 58.5207C12.5922 57.3778 12.1953 56.2666 11.6887 55.2044C11.3597 54.579 10.5915 54.331 9.95896 54.6459C9.3264 54.9607 9.06116 55.7232 9.36174 56.3627C9.79866 57.2986 10.141 58.2758 10.3835 59.2799C10.4576 59.5568 10.5577 59.9208 10.6474 60.2068Z" fill="#EE3675"/>
<path d="M73.3106 31.1649C71.3606 29.4281 71.2527 28.9432 71.8806 28.1814C72.3861 27.6829 72.9304 27.2251 73.5082 26.8125C76.2328 24.433 76.6625 20.3554 74.4936 17.4603L69.4132 11.3399C68.9198 10.7426 68.1847 10.3977 67.4099 10.4H65.651V7.56081C67.4405 6.9305 68.5145 5.10141 68.193 3.23158C67.8715 1.36174 66.2483 -0.00358794 64.351 7.08279e-06H53.951C52.0537 -0.00358794 50.4305 1.36174 50.109 3.23158C49.7875 5.10141 50.8615 6.9305 52.651 7.56081V10.4H50.896C50.1221 10.3976 49.3877 10.7414 48.894 11.3373L43.811 17.4577C41.6424 20.3494 42.0667 24.4233 44.7847 26.806C45.3656 27.2201 45.9125 27.68 46.4201 28.1814C47.0519 28.9432 46.9401 29.4268 44.9901 31.1649C44.8081 31.3261 44.6313 31.4847 44.461 31.6433C43.0234 32.834 42.2117 34.6185 42.2588 36.4845L44.7951 75.5755C44.8838 76.9443 46.0235 78.007 47.3951 78H70.9069C72.2817 78.0027 73.421 76.9346 73.5069 75.5625L76.0406 36.4884C76.0871 34.6182 75.2724 32.8302 73.8306 31.6381C73.6681 31.4847 73.4913 31.33 73.3106 31.1649ZM53.951 2.60001H64.351C65.069 2.60001 65.651 3.18204 65.651 3.90001C65.651 4.61798 65.069 5.20001 64.351 5.20001H53.951C53.233 5.20001 52.651 4.61798 52.651 3.90001C52.651 3.18204 53.233 2.60001 53.951 2.60001ZM55.251 7.80001H63.051V10.4H55.251V7.80001ZM50.896 13H67.406C73.1364 19.903 72.476 19.0723 72.736 19.5H68.9465L66.7365 16.1785C66.338 15.5812 65.5307 15.4199 64.9334 15.8184C64.336 16.2169 64.1748 17.0242 64.5733 17.6215L65.8226 19.5H60.451V16.9C60.451 16.182 59.869 15.6 59.151 15.6C58.433 15.6 57.851 16.182 57.851 16.9V19.5H52.4794L53.7326 17.6215C53.9903 17.2351 54.0224 16.7405 53.8166 16.3241C53.6109 15.9076 53.1985 15.6326 52.735 15.6026C52.2715 15.5725 51.8271 15.7921 51.5694 16.1785L49.3555 19.5H45.566C45.8273 19.0684 45.1617 19.9056 50.896 13ZM70.9069 75.4H47.3964L44.8601 36.3116C44.8758 35.2262 45.3849 34.2071 46.2433 33.5426C46.3967 33.3996 46.5605 33.254 46.7282 33.1032C48.1582 31.8227 50.8362 29.4372 48.426 26.5213C47.8228 25.8821 47.1573 25.3047 46.4396 24.7975C45.6605 24.1022 45.1714 23.1393 45.0694 22.1H73.2365C73.1327 23.143 72.6403 24.1087 71.8572 24.8053C71.1421 25.3089 70.4796 25.8834 69.8799 26.52C67.4684 29.4346 70.1399 31.8201 71.579 33.1019C71.7454 33.2514 71.9092 33.397 72.0587 33.5361C72.9231 34.2011 73.436 35.225 73.451 36.3155L70.9069 75.4Z" fill="#EE3675"/>
<path d="M58.501 70.1998H52.2701L51.6903 61.2467C51.6436 60.5288 51.0238 59.9846 50.3058 60.0312C49.5878 60.0779 49.0436 60.6978 49.0903 61.4157L49.7494 71.5843C49.794 72.2691 50.3632 72.8013 51.0494 72.7998H58.501C59.219 72.7998 59.801 72.2178 59.801 71.4998C59.801 70.7819 59.219 70.1998 58.501 70.1998Z" fill="#EE3675"/>
<path d="M25.3259 50.6829H25.3506C26.0514 50.6779 26.6242 50.1223 26.6506 49.4219C26.6506 49.301 26.8131 46.4501 31.0433 45.2411C32.626 44.8887 34.2762 44.9919 35.8026 45.5388C36.4877 45.7411 37.2077 45.3527 37.4149 44.6691C37.622 43.9854 37.2388 43.2627 36.5566 43.0506C34.553 42.353 32.3912 42.2456 30.3283 42.7412C24.1221 44.5157 24.0506 49.3452 24.0506 49.3998C24.0541 50.104 24.6218 50.6751 25.3259 50.6829Z" fill="#EE3675"/>
</g>
<defs>
<linearGradient id="paint0_linear" x1="41.6567" y1="66.791" x2="-7.03004" y2="47.976" gradientUnits="userSpaceOnUse">
<stop stop-color="#FEEFF4"/>
<stop offset="1" stop-color="#FFFBF5"/>
</linearGradient>
<linearGradient id="paint1_linear" x1="71.4333" y1="20.0178" x2="64.2821" y2="4.56202" gradientUnits="userSpaceOnUse">
<stop stop-color="#FEEFF4"/>
<stop offset="1" stop-color="#FFFBF5"/>
</linearGradient>
<linearGradient id="paint2_linear" x1="71.5994" y1="71.8946" x2="35.1304" y2="58.8928" gradientUnits="userSpaceOnUse">
<stop stop-color="#FEEFF4"/>
<stop offset="1" stop-color="#FFFBF5"/>
</linearGradient>
<linearGradient id="paint3_linear" x1="65.3796" y1="6.05312" x2="60.9843" y2="-2.37835" gradientUnits="userSpaceOnUse">
<stop stop-color="#FEEFF4"/>
<stop offset="1" stop-color="#FFFBF5"/>
</linearGradient>
<clipPath id="clip0">
<rect width="78" height="78" fill="white"/>
</clipPath>
</defs>
</svg>
