<svg width="78" height="78" viewBox="0 0 78 78" fill="none" xmlns="http://www.w3.org/2000/svg">
<g clip-path="url(#clip0)">
<path d="M59.3229 76.6955C59.3229 76.6955 73.6223 44.1973 64.5226 28.5983C55.4229 12.9987 58.0227 1.2998 58.0227 1.2998H19.9815C19.9815 1.2998 22.5813 12.9987 13.4822 28.5983C4.38252 44.1973 18.6819 76.6955 18.6819 76.6955H59.3229Z" fill="#FFE9F0"/>
<path d="M55.6572 76.6955C55.6572 76.6955 67.3757 44.1973 59.9178 28.5983C52.4605 12.9987 54.5884 1.2998 54.5884 1.2998H23.4131C23.4131 1.2998 25.544 12.9987 18.0837 28.5983C10.6234 44.1973 22.3449 76.6955 22.3449 76.6955H55.6572Z" fill="url(#paint0_linear)"/>
<path d="M41.6013 20.7993C41.6013 22.2352 40.4374 23.3991 39.0015 23.3991C37.5656 23.3991 36.4017 22.2352 36.4017 20.7993" fill="#FFE9F0"/>
<path d="M1.30344 8.44907V12.3491C1.30344 12.7079 1.59442 12.9989 1.95325 12.9989H7.15291C7.51173 12.9989 7.80271 13.2899 7.80271 13.6493V15.5107C7.80271 15.763 7.9485 15.9927 8.17701 16.0998C8.40492 16.2075 8.67508 16.1724 8.86907 16.0111L15.0036 10.8984C15.1511 10.7752 15.2368 10.5919 15.2368 10.3991C15.2368 10.2063 15.1511 10.0236 15.0036 9.89984L8.86907 4.78765C8.67508 4.62579 8.40492 4.59128 8.17701 4.69839C7.9485 4.8055 7.80271 5.03579 7.80271 5.2881V7.14946C7.80271 7.50828 7.51173 7.79927 7.15291 7.79927H1.95325C1.59442 7.79927 1.30344 8.09025 1.30344 8.44907Z" fill="url(#paint1_linear)"/>
<path d="M76.7001 8.44907V12.3491C76.7001 12.7079 76.4091 12.9989 76.0497 12.9989H70.85C70.4912 12.9989 70.2002 13.2899 70.2002 13.6493V15.5107C70.2008 15.763 70.055 15.9927 69.8265 16.0998C69.598 16.2075 69.3285 16.1724 69.1345 16.0111L63 10.8984C62.8518 10.7752 62.7661 10.5919 62.7661 10.3991C62.7661 10.2063 62.8518 10.0236 63 9.89984L69.1345 4.78765C69.3285 4.62579 69.598 4.59128 69.8265 4.69839C70.055 4.8055 70.2008 5.03579 70.2002 5.2881V7.14946C70.2002 7.50828 70.4912 7.79927 70.85 7.79927H76.0497C76.4091 7.79927 76.7001 8.09025 76.7001 8.44907Z" fill="url(#paint2_linear)"/>
<path d="M67.5092 40.2851C66.2875 40.1941 53.0022 39.1801 46.801 42.898C45.1241 43.8989 43.7852 44.6529 42.7457 45.1985C42.7064 45.2247 42.6677 45.2378 42.6284 45.2634C42.3684 45.3937 42.1345 45.5234 41.9138 45.6276C40.0822 46.5505 37.9215 46.5505 36.0899 45.6276C35.8037 45.4848 35.4787 45.3289 35.1408 45.1468C34.1012 44.5874 32.8141 43.8596 31.202 42.898C25.0015 39.1801 11.7292 40.1941 10.4938 40.2982C10.5391 36.2149 11.5644 32.2024 13.484 28.5987C13.7441 28.1434 14.0041 27.7013 14.238 27.2598L14.3028 27.2984C16.9806 27.4026 19.5804 28.7022 22.0506 29.6382C24.8587 30.7046 27.6793 31.9911 30.5653 32.8492C33.321 33.5484 36.1595 33.8679 39.0015 33.7983C41.8441 33.8679 44.6826 33.5484 47.4383 32.8492C50.3244 31.9911 53.145 30.7046 55.9531 29.6382C58.4226 28.7022 61.0224 27.4026 63.7002 27.2984L63.7657 27.2598C63.9995 27.7013 64.2596 28.1434 64.5196 28.5987C66.4393 32.1976 67.4646 36.2059 67.5092 40.2851Z" fill="#FFE9F0"/>
<path d="M62.3481 40.0895C57.6037 40.0764 50.7527 40.5185 46.8009 42.8976C45.124 43.8985 43.7851 44.6524 42.7456 45.1981C42.7063 45.2243 42.6676 45.2374 42.6283 45.263C42.3683 45.3933 42.1344 45.523 41.9137 45.6271C40.0821 46.5501 37.9214 46.5501 36.0898 45.6271C35.8036 45.4843 35.4787 45.3284 35.1407 45.1463C34.1011 44.587 32.814 43.8592 31.2019 42.8976C27.2501 40.5185 20.3998 40.0764 15.6547 40.0895C15.6809 36.1341 16.5074 32.2251 18.0856 28.5982C18.1504 28.4548 18.2284 28.312 18.2807 28.1692C19.5679 28.6238 20.8288 29.1701 22.0505 29.6378C24.8586 30.7042 27.6792 31.9907 30.5652 32.8488C33.321 33.548 36.1594 33.8675 39.0014 33.7979C41.844 33.8675 44.6825 33.548 47.4382 32.8488C50.3243 31.9907 53.1449 30.7042 55.953 29.6378C57.1747 29.1701 58.4356 28.6238 59.7227 28.1692C59.7745 28.312 59.8524 28.4548 59.9173 28.5982C61.4954 32.2251 62.3225 36.1341 62.3481 40.0895Z" fill="url(#paint3_linear)"/>
<path d="M55.6544 76.6954H39.0021V56.0265C39.884 52.4032 41.0176 48.8459 42.3952 45.3802L42.629 45.263C42.6683 45.2374 42.707 45.2243 42.7463 45.1981C43.7858 44.6525 45.1247 43.8985 46.8016 42.8976C50.7534 40.5186 57.6044 40.0764 62.3488 40.0895C63.0123 56.3127 55.6544 76.6954 55.6544 76.6954Z" fill="#FFE9F0"/>
<path d="M55.6537 76.6954H42.4332C39.6388 62.2663 44.2791 48.0973 46.1125 43.3136C46.2815 43.2094 46.463 43.1053 46.6451 42.9887C46.6974 42.9625 46.7492 42.9232 46.801 42.8976C50.7528 40.5186 57.6037 40.0764 62.3482 40.0895C63.0117 56.3127 55.6537 76.6954 55.6537 76.6954Z" fill="url(#paint4_linear)"/>
<path d="M22.3403 76.6954H38.9925V56.0265C38.1107 52.4032 36.9771 48.8459 35.5995 45.3802L35.3656 45.263C35.3269 45.2374 35.2877 45.2243 35.249 45.1981C34.2088 44.6525 32.8687 43.8985 31.193 42.8976C27.2412 40.5186 20.3903 40.0764 15.6446 40.0895C14.9829 56.3127 22.3403 76.6954 22.3403 76.6954Z" fill="#FFE9F0"/>
<path d="M22.3403 76.6954H35.5608C38.3558 62.2663 33.7149 48.0973 31.8821 43.3136C31.7131 43.2094 31.531 43.1053 31.3489 42.9887C31.2972 42.9625 31.2436 42.9232 31.193 42.8976C27.2412 40.5186 20.3903 40.0764 15.6446 40.0895C14.9829 56.3127 22.3403 76.6954 22.3403 76.6954Z" fill="url(#paint5_linear)"/>
<path d="M42.3948 45.3806C41.0172 48.8463 39.8837 52.4035 39.0018 56.0269C38.1169 52.4089 36.9833 48.8558 35.6093 45.3937C35.7783 45.4717 35.9342 45.5496 36.0901 45.6276C37.9217 46.5505 40.0824 46.5505 41.914 45.6276C42.0699 45.5496 42.2258 45.4717 42.3948 45.3806Z" fill="#FFDFE9"/>
<path d="M13.4817 28.5984C13.4174 28.7061 13.3681 28.8234 13.3074 28.9334C13.1199 29.2703 12.9378 29.6106 12.7718 29.9617C12.6623 30.1932 12.5665 30.4324 12.4659 30.6704C12.366 30.9085 12.2559 31.162 12.1607 31.4137C12.0577 31.6856 11.9643 31.9635 11.8709 32.242C11.7965 32.4657 11.7251 32.6907 11.6578 32.918C11.5668 33.2221 11.4799 33.5303 11.3978 33.8421C11.3472 34.0427 11.3014 34.245 11.2544 34.4479C11.1752 34.7912 11.0985 35.1328 11.0324 35.4881C11.0051 35.6333 10.983 35.7814 10.958 35.9284C10.7444 37.1894 10.6022 38.4616 10.5332 39.7386C10.5231 39.9249 10.5046 40.1093 10.4969 40.298C9.7947 56.492 18.6784 76.6956 18.6784 76.6956H22.5784C22.5784 76.6956 13.6947 56.492 14.3963 40.298C14.4046 40.1093 14.4225 39.9249 14.4332 39.7386C14.5034 38.4598 14.6474 37.1858 14.8634 35.9237C14.8878 35.7767 14.9099 35.6285 14.9372 35.4827C15.0039 35.1328 15.08 34.7912 15.1598 34.4425C15.2062 34.2402 15.252 34.0373 15.3026 33.8368C15.3829 33.525 15.4698 33.2167 15.5626 32.9126C15.6305 32.6847 15.7013 32.4598 15.7757 32.2366C15.8697 31.9587 15.9631 31.6803 16.0655 31.4089C16.1607 31.1566 16.266 30.9108 16.3713 30.6651C16.4767 30.4193 16.5677 30.1878 16.6766 29.957C16.8432 29.6059 17.0253 29.2649 17.2122 28.9287C17.2734 28.818 17.3228 28.7008 17.3865 28.5931C26.4862 12.9941 23.8864 1.29456 23.8864 1.29456H19.9863C19.9863 1.29456 22.5808 12.9989 13.4817 28.5984Z" fill="white"/>
<path d="M17.491 77.2155C15.2821 71.9593 13.4398 66.5562 11.9766 61.0459C10.4895 55.6742 9.56417 50.1628 9.21547 44.6001C9.05599 41.7748 9.1869 38.9405 9.60523 36.1419C10.0206 33.2671 10.9513 30.4918 12.3532 27.9479L14.605 29.2481C12.0932 33.698 11.5737 39.1785 11.8111 44.4758C12.1521 49.8557 13.0501 55.1857 14.4907 60.38C15.9189 65.7629 17.7171 71.0406 19.8707 76.1759L17.491 77.2155Z" fill="white"/>
<path d="M16.2331 67.5349C16.5336 66.8957 16.2866 66.1334 15.6689 65.7913C15.5148 65.7181 15.3482 65.674 15.1774 65.6615C15.0078 65.6443 14.8364 65.6609 14.6733 65.7097C14.346 65.8168 14.0723 66.0448 13.9074 66.3465C13.7581 66.6595 13.7307 67.0171 13.8307 67.3486C13.942 67.6777 14.1746 67.952 14.4805 68.1157L14.715 68.2032C14.7995 68.2276 14.887 68.2406 14.975 68.2406C15.056 68.2537 15.1393 68.2537 15.2202 68.2406C15.3083 68.2281 15.3952 68.2091 15.4803 68.1835C15.8028 68.0681 16.0712 67.8366 16.2331 67.5349Z" fill="#EE3675"/>
<path d="M12.3529 27.9483C10.9516 30.491 10.0209 33.2652 9.60493 36.1382C9.1866 38.9368 9.05569 41.7716 9.21516 44.597C9.56327 50.1608 10.4886 55.6735 11.9763 61.0463L12.3196 62.3162C12.5213 62.9963 13.2318 63.3891 13.915 63.1981C14.5987 63.0071 15.0027 62.3037 14.823 61.617L14.4892 60.3757C13.0492 55.1826 12.1518 49.8544 11.8108 44.4762C11.7656 43.4908 11.7591 42.4988 11.7745 41.5098C17.1735 41.1742 26.1352 41.3795 30.5351 44.0144C31.7728 44.7529 32.8832 45.386 33.9008 45.9448C33.915 45.9823 33.9127 46.0228 33.9305 46.0608C35.5098 49.6205 36.7791 53.3099 37.724 57.088C37.7145 57.1237 37.7074 57.1606 37.702 57.1969V75.3963H19.552C19.0087 74.0895 18.4839 72.7506 17.9923 71.4117C17.7406 70.7447 17.0016 70.4013 16.3297 70.6399C16.0036 70.7572 15.7382 70.9993 15.5919 71.3135C15.4455 71.6271 15.43 71.9865 15.5496 72.3115C16.1566 73.952 16.7796 75.5611 17.483 77.1981V77.2201C17.6889 77.692 18.1542 77.9985 18.6695 78.0003H59.3224C59.839 77.9997 60.3067 77.6938 60.5132 77.2201C61.107 75.8681 74.9708 43.9377 65.6503 27.9483C56.941 13.0265 59.2677 1.68998 59.2909 1.58227C59.3766 1.19727 59.2832 0.794409 59.0362 0.486761C58.7899 0.179114 58.4168 0 58.0222 0H19.981C19.5877 0 19.2152 0.178519 18.9682 0.484976C18.7213 0.791434 18.6267 1.1937 18.7112 1.57811C18.7356 1.68998 21.0629 13.0265 12.3529 27.9483ZM39.0016 52.1406C38.3893 50.2138 37.8062 48.6202 37.3366 47.4307C38.4328 47.6776 39.5699 47.6776 40.6654 47.4307C40.1965 48.6178 39.6128 50.215 39.0016 52.1406ZM58.4608 75.3963H40.3018V57.1969C40.2965 57.1606 40.2888 57.1237 40.2798 57.088C41.2242 53.3099 42.4929 49.6205 44.0716 46.0608C44.09 46.0228 44.087 45.9841 44.1013 45.946C45.0737 45.4158 46.1959 44.7713 47.4682 44.0132C52.3888 41.0611 62.4174 41.2938 66.2484 41.5068C66.4448 55.2147 60.0038 71.6617 58.4608 75.3963ZM66.1169 38.8951C61.5022 38.6482 51.5176 38.5535 46.1347 41.7812C44.5679 42.7172 43.2242 43.4789 42.1049 44.0662L42.0109 44.1174L41.708 44.2733C41.5848 44.337 41.4676 44.403 41.3248 44.4667C39.8585 45.2016 38.1317 45.2016 36.666 44.4667L36.4488 44.359C36.2316 44.2513 35.9948 44.134 35.7508 44.0025C34.6226 43.3956 33.3146 42.6494 31.865 41.7853C26.3536 38.478 15.9138 38.6809 11.8983 38.9016C12.0923 35.5265 13.0158 32.2328 14.6046 29.2485C14.7165 29.0551 14.8111 28.8689 14.9206 28.6767C16.6975 28.979 18.4285 29.5062 20.0721 30.2471C20.5815 30.4535 21.0873 30.6576 21.5877 30.8475C22.4821 31.1878 23.3765 31.5496 24.275 31.912C26.1923 32.6922 28.1745 33.4901 30.1911 34.0858C33.0635 34.8267 36.0245 35.167 38.9903 35.098H39.0135C41.9787 35.1688 44.9392 34.8296 47.8115 34.0906C49.8288 33.4955 51.8116 32.6934 53.7289 31.9174C54.6268 31.5544 55.5212 31.1932 56.4156 30.8528C56.916 30.663 57.4218 30.4625 57.933 30.2518C59.5753 29.5116 61.3058 28.9837 63.0821 28.682C63.1909 28.8742 63.2862 29.0599 63.3992 29.2539C65.0071 32.2268 65.9354 35.5199 66.1169 38.8951ZM21.4866 2.59983H56.5173C56.1478 6.07976 56.0246 14.9492 61.7652 26.2393C60.1163 26.6249 58.506 27.1616 56.9553 27.8418C56.4626 28.0412 55.974 28.2322 55.4914 28.422C54.5816 28.7677 53.6717 29.1379 52.7512 29.5074C50.891 30.2601 48.9683 31.0373 47.0719 31.5972C44.4352 32.2625 41.7205 32.566 39.0016 32.4982C36.2822 32.566 33.5657 32.2631 30.9278 31.5972C29.0325 31.0373 27.1099 30.2601 25.2497 29.5074C24.3399 29.1379 23.4223 28.7677 22.5095 28.422C22.0275 28.2387 21.5383 28.0412 21.0456 27.8418C19.4949 27.1616 17.8846 26.6249 16.2363 26.2381C21.9793 14.9492 21.8555 6.07976 21.4866 2.59983Z" fill="#EE3675"/>
<path d="M39.0019 24.6993C41.156 24.6993 42.9019 22.9534 42.9019 20.7998C42.9019 20.0816 42.3199 19.4996 41.6017 19.4996C40.8841 19.4996 40.3021 20.0816 40.3021 20.7998C40.3021 21.5175 39.7201 22.0995 39.0019 22.0995C38.2842 22.0995 37.7022 21.5175 37.7022 20.7998C37.7022 20.0816 37.1203 19.4996 36.402 19.4996C35.6844 19.4996 35.1024 20.0816 35.1024 20.7998C35.1024 22.9534 36.8483 24.6993 39.0019 24.6993Z" fill="#EE3675"/>
<path d="M1.30387 14.2997H6.50354V16.8995C6.50354 17.4036 6.79571 17.8623 7.25213 18.076C7.70854 18.2902 8.24767 18.2206 8.63565 17.8981L16.4351 11.3982C16.7309 11.1512 16.9023 10.7853 16.9023 10.3997C16.9023 10.0141 16.7309 9.64869 16.4351 9.40174L8.63565 2.90187C8.24767 2.57934 7.70854 2.50972 7.25213 2.72335C6.79571 2.93698 6.50354 3.39577 6.50354 3.90038V6.50021H1.30387C0.585634 6.50021 0.00366211 7.08218 0.00366211 7.79983V12.9995C0.00366211 13.7177 0.585634 14.2997 1.30387 14.2997ZM2.60349 9.10004H7.80315C8.52139 9.10004 9.10337 8.51807 9.10337 7.79983V6.67576L13.5723 10.3997L9.10337 14.1242V12.9995C9.10337 12.2818 8.52139 11.6999 7.80315 11.6999H2.60349V9.10004Z" fill="#EE3675"/>
<path d="M76.7007 6.50013H71.501V3.9003C71.501 3.39509 71.2089 2.9363 70.7519 2.72207C70.2948 2.50785 69.7551 2.57807 69.3677 2.90178L61.5682 9.40166C61.2719 9.64861 61.1005 10.014 61.1005 10.3996C61.1005 10.7852 61.2719 11.1511 61.5682 11.3981L69.3677 17.898C69.7551 18.2211 70.2948 18.2913 70.7519 18.0777C71.2089 17.8635 71.501 17.4041 71.501 16.8995V14.2996H76.7007C77.4183 14.2996 78.0003 13.7176 78.0003 12.9994V7.79975C78.0003 7.0821 77.4183 6.50013 76.7007 6.50013ZM75.4005 11.6998H70.2008C69.4832 11.6998 68.9012 12.2818 68.9012 12.9994V14.1241L64.4329 10.3996L68.9012 6.67567V7.79975C68.9012 8.51799 69.4832 9.09996 70.2008 9.09996H75.4005V11.6998Z" fill="#EE3675"/>
</g>
<defs>
<linearGradient id="paint0_linear" x1="57.6889" y1="70.2162" x2="4.37871" y2="49.0561" gradientUnits="userSpaceOnUse">
<stop stop-color="#FEEFF4"/>
<stop offset="1" stop-color="#FFFBF5"/>
</linearGradient>
<linearGradient id="paint1_linear" x1="13.834" y1="15.1712" x2="2.33471" y2="6.2815" gradientUnits="userSpaceOnUse">
<stop stop-color="#FEEFF4"/>
<stop offset="1" stop-color="#FFFBF5"/>
</linearGradient>
<linearGradient id="paint2_linear" x1="75.2972" y1="15.1712" x2="63.7978" y2="6.28103" gradientUnits="userSpaceOnUse">
<stop stop-color="#FEEFF4"/>
<stop offset="1" stop-color="#FFFBF5"/>
</linearGradient>
<linearGradient id="paint3_linear" x1="57.647" y1="44.7596" x2="41.0345" y2="17.4319" gradientUnits="userSpaceOnUse">
<stop stop-color="#FEEFF4"/>
<stop offset="1" stop-color="#FFFBF5"/>
</linearGradient>
<linearGradient id="paint4_linear" x1="60.2932" y1="73.5496" x2="36.0381" y2="64.7237" gradientUnits="userSpaceOnUse">
<stop stop-color="#FEEFF4"/>
<stop offset="1" stop-color="#FFFBF5"/>
</linearGradient>
<linearGradient id="paint5_linear" x1="34.3375" y1="73.5496" x2="10.0813" y2="64.7228" gradientUnits="userSpaceOnUse">
<stop stop-color="#FEEFF4"/>
<stop offset="1" stop-color="#FFFBF5"/>
</linearGradient>
<clipPath id="clip0">
<rect width="78" height="78" fill="white"/>
</clipPath>
</defs>
</svg>
