<svg width="46" height="46" viewBox="0 0 46 46" fill="none" xmlns="http://www.w3.org/2000/svg">
<path d="M43.7835 14.5667V42.1666C43.7835 43.8603 42.4106 45.2332 40.7169 45.2332H5.45041C3.75671 45.2332 2.38379 43.8603 2.38379 42.1666V14.5667H43.7835Z" fill="url(#paint0_linear)"/>
<path d="M41.4837 14.5667V42.1666C41.4837 43.8603 40.1108 45.2332 38.4171 45.2332H5.45041C3.75671 45.2332 2.38379 43.8603 2.38379 42.1666V14.5667H41.4837Z" fill="url(#paint1_linear)"/>
<path d="M43.7835 6.90012V14.5667H2.38379V6.90012C2.38379 5.20642 3.75671 3.8335 5.45041 3.8335H40.7169C42.4106 3.8335 43.7835 5.20642 43.7835 6.90012Z" fill="#FFDFE9"/>
<path d="M41.4837 6.90012V14.5667H2.38379V6.90012C2.38379 5.20642 3.75671 3.8335 5.45041 3.8335H38.4171C40.1108 3.8335 41.4837 5.20642 41.4837 6.90012Z" fill="url(#paint2_linear)"/>
<path d="M12.3504 5.78052C13.5524 6.4747 14.1385 7.88939 13.7791 9.23003C13.4197 10.571 12.2047 11.5031 10.8171 11.5031C9.42907 11.5031 8.21407 10.571 7.8547 9.23003C7.49567 7.88939 8.08141 6.4747 9.28342 5.78052" fill="#FFE9F0"/>
<path d="M24.6178 5.78052C25.8198 6.4747 26.4058 7.88939 26.0465 9.23003C25.6875 10.571 24.4725 11.5031 23.0844 11.5031C21.6964 11.5031 20.4814 10.571 20.1224 9.23003C19.763 7.88939 20.3491 6.4747 21.5511 5.78052" fill="#FFE9F0"/>
<path d="M36.8836 5.78052C38.0856 6.4747 38.6717 7.88939 38.3123 9.23003C37.9529 10.571 36.7383 11.5031 35.3503 11.5031C33.9623 11.5031 32.7473 10.571 32.3879 9.23003C32.0289 7.88939 32.6146 6.4747 33.817 5.78052" fill="#FFE9F0"/>
<path d="M10.8178 0.766846C11.6643 0.766846 12.3511 1.45331 12.3511 2.30016V6.90008C12.3511 7.74693 11.6643 8.43339 10.8178 8.43339C9.97099 8.43339 9.28418 7.74693 9.28418 6.90008V2.30016C9.28418 1.45331 9.97099 0.766846 10.8178 0.766846Z" fill="url(#paint3_linear)"/>
<path d="M23.0841 0.766846C23.9309 0.766846 24.6174 1.45331 24.6174 2.30016V6.90008C24.6174 7.74693 23.9309 8.43339 23.0841 8.43339C22.2372 8.43339 21.5508 7.74693 21.5508 6.90008V2.30016C21.5508 1.45331 22.2372 0.766846 23.0841 0.766846Z" fill="url(#paint4_linear)"/>
<path d="M35.3507 0.766846C36.1975 0.766846 36.884 1.45331 36.884 2.30016V6.90008C36.884 7.74693 36.1975 8.43339 35.3507 8.43339C34.5038 8.43339 33.8174 7.74693 33.8174 6.90008V2.30016C33.8174 1.45331 34.5038 0.766846 35.3507 0.766846Z" fill="url(#paint5_linear)"/>
<path d="M16.4692 32.3908L19.512 35.4238L30.9951 21.2867C31.3352 20.8684 31.8641 20.6511 32.4 20.7094C32.9359 20.7677 33.4055 21.0933 33.648 21.5749V21.5787C33.9122 22.1044 33.8617 22.7333 33.5167 23.2103L21.3888 40.0002C21.1179 40.3768 20.6908 40.6101 20.2275 40.6354C19.7646 40.6603 19.3147 40.4747 19.0045 40.1297L14.0978 34.6994C13.663 34.2168 13.5675 33.5174 13.8578 32.9362L13.923 32.8064C14.1512 32.3491 14.5853 32.0294 15.0896 31.9472C15.5943 31.8648 16.1074 32.0301 16.4692 32.3908Z" fill="#FFDFE9"/>
<path d="M2.38379 6.90012V42.1666C2.38379 43.8603 3.75671 45.2332 5.45041 45.2332H7.7502C6.0565 45.2332 4.68358 43.8603 4.68358 42.1666V6.90012C4.68358 5.20642 6.0565 3.8335 7.7502 3.8335H5.45041C3.75671 3.8335 2.38379 5.20642 2.38379 6.90012Z" fill="white"/>
<path d="M1.61719 42.1665V6.90002H3.1505V42.1665H1.61719Z" fill="white"/>
<path d="M2.09264 36.7387C2.13581 36.7608 2.18248 36.7763 2.23056 36.7847C2.2811 36.7931 2.33234 36.7984 2.38393 36.8002C2.58678 36.797 2.78121 36.7177 2.92826 36.5777C2.99739 36.5043 3.05214 36.4187 3.08899 36.3246C3.20481 36.0386 3.14163 35.7115 2.92826 35.489C2.85491 35.4199 2.76892 35.3651 2.67522 35.3279C2.58292 35.2886 2.48395 35.2679 2.38393 35.2668C2.18073 35.2697 1.98665 35.349 1.8396 35.489C1.54305 35.7912 1.54305 36.2755 1.8396 36.5777L1.95436 36.6696C1.99718 36.6987 2.04351 36.7219 2.09264 36.7387Z" fill="#EE3675"/>
<path d="M44.5506 6.90007C44.5481 4.78383 42.8334 3.06908 40.7171 3.06662H37.6505V2.30014C37.6505 1.02969 36.6208 0 35.3507 0C34.0803 0 33.0506 1.02969 33.0506 2.30014V3.06662H25.384V2.30014C25.384 1.02969 24.3543 0 23.0839 0C21.8138 0 20.7837 1.02969 20.7837 2.30014V3.06662H13.1172V2.30014C13.1172 1.02969 12.0875 0 10.8174 0C9.54695 0 8.51726 1.02969 8.51726 2.30014V3.06662H5.45064C3.3344 3.06908 1.61964 4.78383 1.61719 6.90007V32.9667C1.61719 33.3899 1.96042 33.7332 2.38402 33.7332C2.80727 33.7332 3.1505 33.3899 3.1505 32.9667V15.3335H43.0173V42.1665C43.0173 43.437 41.9876 44.4667 40.7171 44.4667H5.45064C4.18019 44.4667 3.1505 43.437 3.1505 42.1665V39.0999C3.1505 38.6767 2.80727 38.3335 2.38402 38.3335C1.96042 38.3335 1.61719 38.6767 1.61719 39.0999V42.1665C1.61964 44.2828 3.3344 45.9975 5.45064 46H40.7171C42.8334 45.9975 44.5481 44.2828 44.5506 42.1665V6.90007ZM37.6505 8.43338C37.6505 9.70348 36.6208 10.7332 35.3507 10.7332C34.0803 10.7332 33.0506 9.70348 33.0506 8.43338C33.0555 8.17508 33.1046 7.91994 33.1955 7.67813C33.5194 8.59026 34.3824 9.19986 35.3507 9.19986C36.3186 9.19986 37.1816 8.59026 37.5056 7.67813C37.5968 7.91994 37.6456 8.17508 37.6505 8.43338ZM34.5839 2.30014C34.5839 1.87654 34.9271 1.53331 35.3507 1.53331C35.774 1.53331 36.1172 1.87654 36.1172 2.30014V6.90007C36.1172 7.32332 35.774 7.66655 35.3507 7.66655C34.9271 7.66655 34.5839 7.32332 34.5839 6.90007V2.30014ZM25.384 8.43338C25.384 9.70348 24.3543 10.7332 23.0839 10.7332C21.8138 10.7332 20.7837 9.70348 20.7837 8.43338C20.7887 8.17508 20.8378 7.91994 20.9287 7.67813C21.2526 8.59026 22.116 9.19986 23.0839 9.19986C24.0518 9.19986 24.9151 8.59026 25.2391 7.67813C25.33 7.91994 25.3791 8.17508 25.384 8.43338ZM22.3174 2.30014C22.3174 1.87654 22.6606 1.53331 23.0839 1.53331C23.5075 1.53331 23.8507 1.87654 23.8507 2.30014V6.90007C23.8507 7.32332 23.5075 7.66655 23.0839 7.66655C22.6606 7.66655 22.3174 7.32332 22.3174 6.90007V2.30014ZM13.1172 8.43338C13.1172 9.70348 12.0875 10.7332 10.8174 10.7332C9.54695 10.7332 8.51726 9.70348 8.51726 8.43338C8.52217 8.17508 8.5713 7.91994 8.6622 7.67813C8.98613 8.59026 9.84912 9.19986 10.8174 9.19986C11.7853 9.19986 12.6483 8.59026 12.9722 7.67813C13.0631 7.91994 13.1123 8.17508 13.1172 8.43338ZM10.0506 2.30014C10.0506 1.87654 10.3938 1.53331 10.8174 1.53331C11.2406 1.53331 11.5839 1.87654 11.5839 2.30014V6.90007C11.5839 7.32332 11.2406 7.66655 10.8174 7.66655C10.3938 7.66655 10.0506 7.32332 10.0506 6.90007V2.30014ZM3.1505 13.8001V6.90007C3.1505 5.62962 4.18019 4.59993 5.45064 4.59993H8.51726V5.37273C7.19733 6.36276 6.65897 8.08629 7.18048 9.65154C7.70235 11.2171 9.16722 12.2728 10.8174 12.2728C12.4672 12.2728 13.9321 11.2171 14.454 9.65154C14.9755 8.08629 14.4371 6.36276 13.1172 5.37273V4.59993H20.7837V5.37273C19.4638 6.36276 18.9254 8.08629 19.4473 9.65154C19.9692 11.2171 21.4341 12.2728 23.0839 12.2728C24.7341 12.2728 26.1986 11.2171 26.7204 9.65154C27.2423 8.08629 26.7039 6.36276 25.384 5.37273V4.59993H33.0506V5.37273C31.7306 6.36276 31.1923 8.08629 31.7138 9.65154C32.2357 11.2171 33.7005 12.2728 35.3507 12.2728C37.0005 12.2728 38.4654 11.2171 38.9873 9.65154C39.5088 8.08629 38.9704 6.36276 37.6505 5.37273V4.59993H40.7171C41.9876 4.59993 43.0173 5.62962 43.0173 6.90007V13.8001H3.1505Z" fill="#EE3675"/>
<path d="M6.2169 18.4001C6.6405 18.4001 6.98373 18.0569 6.98373 17.6333C6.98373 17.2101 6.6405 16.8668 6.2169 16.8668H5.45042C5.02682 16.8668 4.68359 17.2101 4.68359 17.6333C4.68359 18.0569 5.02682 18.4001 5.45042 18.4001H6.2169Z" fill="#EE3675"/>
<path d="M10.0509 18.4001C10.4741 18.4001 10.8177 18.0569 10.8177 17.6333C10.8177 17.2101 10.4741 16.8668 10.0509 16.8668H9.28406C8.86081 16.8668 8.51758 17.2101 8.51758 17.6333C8.51758 18.0569 8.86081 18.4001 9.28406 18.4001H10.0509Z" fill="#EE3675"/>
<path d="M13.1171 18.4001H13.8839C14.3071 18.4001 14.6504 18.0569 14.6504 17.6333C14.6504 17.2101 14.3071 16.8668 13.8839 16.8668H13.1171C12.6938 16.8668 12.3506 17.2101 12.3506 17.6333C12.3506 18.0569 12.6938 18.4001 13.1171 18.4001Z" fill="#EE3675"/>
<path d="M17.7169 18.4001C18.1405 18.4001 18.4837 18.0569 18.4837 17.6333C18.4837 17.2101 18.1405 16.8668 17.7169 16.8668H16.9504C16.5268 16.8668 16.1836 17.2101 16.1836 17.6333C16.1836 18.0569 16.5268 18.4001 16.9504 18.4001H17.7169Z" fill="#EE3675"/>
<path d="M21.5509 18.4001C21.9741 18.4001 22.3177 18.0569 22.3177 17.6333C22.3177 17.2101 21.9741 16.8668 21.5509 16.8668H20.7841C20.3608 16.8668 20.0176 17.2101 20.0176 17.6333C20.0176 18.0569 20.3608 18.4001 20.7841 18.4001H21.5509Z" fill="#EE3675"/>
<path d="M25.3839 18.4001C25.8071 18.4001 26.1504 18.0569 26.1504 17.6333C26.1504 17.2101 25.8071 16.8668 25.3839 16.8668H24.6171C24.1938 16.8668 23.8506 17.2101 23.8506 17.6333C23.8506 18.0569 24.1938 18.4001 24.6171 18.4001H25.3839Z" fill="#EE3675"/>
<path d="M29.2169 18.4001C29.6405 18.4001 29.9837 18.0569 29.9837 17.6333C29.9837 17.2101 29.6405 16.8668 29.2169 16.8668H28.4504C28.0268 16.8668 27.6836 17.2101 27.6836 17.6333C27.6836 18.0569 28.0268 18.4001 28.4504 18.4001H29.2169Z" fill="#EE3675"/>
<path d="M33.0509 18.4001C33.4741 18.4001 33.8177 18.0569 33.8177 17.6333C33.8177 17.2101 33.4741 16.8668 33.0509 16.8668H32.2841C31.8608 16.8668 31.5176 17.2101 31.5176 17.6333C31.5176 18.0569 31.8608 18.4001 32.2841 18.4001H33.0509Z" fill="#EE3675"/>
<path d="M36.8839 18.4001C37.3071 18.4001 37.6504 18.0569 37.6504 17.6333C37.6504 17.2101 37.3071 16.8668 36.8839 16.8668H36.1171C35.6938 16.8668 35.3506 17.2101 35.3506 17.6333C35.3506 18.0569 35.6938 18.4001 36.1171 18.4001H36.8839Z" fill="#EE3675"/>
<path d="M40.7169 18.4001C41.1405 18.4001 41.4837 18.0569 41.4837 17.6333C41.4837 17.2101 41.1405 16.8668 40.7169 16.8668H39.9504C39.5268 16.8668 39.1836 17.2101 39.1836 17.6333C39.1836 18.0569 39.5268 18.4001 39.9504 18.4001H40.7169Z" fill="#EE3675"/>
<path d="M13.1171 41.4001H29.217C29.6406 41.4001 29.9838 41.0568 29.9838 40.6332C29.9838 40.21 29.6406 39.8668 29.217 39.8668H22.4306L34.1398 23.6587C34.8863 22.6245 34.6736 21.1838 33.6597 20.41C32.6458 19.6361 31.1999 19.8105 30.3994 20.8034L19.4521 34.2814L17.0102 31.8482C16.4743 31.3151 15.7152 31.0715 14.9694 31.193C14.2233 31.3144 13.5807 31.7861 13.2413 32.4613L13.1778 32.5901C12.7398 33.4535 12.8812 34.4975 13.5333 35.2131L17.7377 39.8668H13.1171C12.6938 39.8668 12.3506 40.21 12.3506 40.6332C12.3506 41.0568 12.6938 41.4001 13.1171 41.4001ZM14.5486 33.2734L14.6128 33.1446C14.73 32.9088 14.9539 32.7445 15.214 32.7038C15.2589 32.6965 15.3046 32.6926 15.3505 32.6929C15.5671 32.6929 15.7748 32.7793 15.9278 32.933L18.9706 35.9659C19.1243 36.1193 19.3356 36.2004 19.5521 36.1891C19.769 36.1779 19.9708 36.0754 20.1077 35.907L31.5936 21.7734C31.8776 21.4477 32.365 21.3975 32.7086 21.659C33.0526 21.9205 33.135 22.4034 32.8971 22.7638L20.7685 39.5484C20.6331 39.7373 20.4193 39.8545 20.1873 39.8671C19.955 39.8797 19.7301 39.7867 19.5746 39.6137L14.6679 34.1834C14.443 33.9343 14.3952 33.5721 14.5486 33.2734Z" fill="#EE3675"/>
<path d="M32.2841 39.8668C31.8608 39.8668 31.5176 40.2101 31.5176 40.6333C31.5176 41.0569 31.8608 41.4001 32.2841 41.4001H33.8177C34.241 41.4001 34.5842 41.0569 34.5842 40.6333C34.5842 40.2101 34.241 39.8668 33.8177 39.8668H32.2841Z" fill="#EE3675"/>
<defs>
<linearGradient id="paint0_linear" x1="39.6153" y1="42.5978" x2="8.33641" y2="15.5969" gradientUnits="userSpaceOnUse">
<stop stop-color="#FEEFF4"/>
<stop offset="1" stop-color="#FFFBF5"/>
</linearGradient>
<linearGradient id="paint1_linear" x1="37.5471" y1="42.5978" x2="6.57737" y2="17.3489" gradientUnits="userSpaceOnUse">
<stop stop-color="#FEEFF4"/>
<stop offset="1" stop-color="#FFFBF5"/>
</linearGradient>
<linearGradient id="paint2_linear" x1="37.5471" y1="13.6443" x2="29.5243" y2="-5.0438" gradientUnits="userSpaceOnUse">
<stop stop-color="#FEEFF4"/>
<stop offset="1" stop-color="#FFFBF5"/>
</linearGradient>
<linearGradient id="paint3_linear" x1="12.0424" y1="7.77455" x2="8.24682" y2="6.80364" gradientUnits="userSpaceOnUse">
<stop stop-color="#FEEFF4"/>
<stop offset="1" stop-color="#FFFBF5"/>
</linearGradient>
<linearGradient id="paint4_linear" x1="24.3086" y1="7.77455" x2="20.5135" y2="6.80385" gradientUnits="userSpaceOnUse">
<stop stop-color="#FEEFF4"/>
<stop offset="1" stop-color="#FFFBF5"/>
</linearGradient>
<linearGradient id="paint5_linear" x1="36.5753" y1="7.77455" x2="32.7801" y2="6.80385" gradientUnits="userSpaceOnUse">
<stop stop-color="#FEEFF4"/>
<stop offset="1" stop-color="#FFFBF5"/>
</linearGradient>
</defs>
</svg>
