<svg width="46" height="46" viewBox="0 0 46 46" fill="none" xmlns="http://www.w3.org/2000/svg">
<g clip-path="url(#clip0)">
<path d="M31.4335 6.90072V20.1869L30.7973 44.9343C30.5393 45.1301 30.2238 45.2354 29.9003 45.2333H2.30073C1.45495 45.2308 0.769897 44.5458 0.76709 43.7V6.90072C0.769897 6.05494 1.45495 5.36989 2.30073 5.36743H29.9003C30.746 5.36989 31.4311 6.05494 31.4335 6.90072Z" fill="#FFE9F0"/>
<path d="M29.1334 6.90072V20.1869L28.4972 44.9343C28.2392 45.1301 27.9241 45.2354 27.6001 45.2333H2.30073C1.45495 45.2308 0.769897 44.5458 0.76709 43.7V6.90072C0.769897 6.05494 1.45495 5.36989 2.30073 5.36743H27.6001C28.4459 5.36989 29.131 6.05494 29.1334 6.90072Z" fill="url(#paint0_linear)"/>
<path d="M28.3669 19.1747V9.20043C28.3669 8.77719 28.0237 8.43396 27.6001 8.43396H4.60045C4.17721 8.43396 3.83398 8.77719 3.83398 9.20043V41.4002C3.83398 41.8234 4.17721 42.1666 4.60045 42.1666H28.3669V19.1747Z" fill="url(#paint1_linear)"/>
<path d="M29.1331 25.3005C25.3 24.5337 26.1732 19.4808 26.1739 19.4783C26.2381 19.1947 28.0981 19.167 28.368 19.1716C30.6025 19.1891 32.585 20.6087 33.3213 22.7182C33.841 24.0669 33.8702 26.2968 34.4998 27.6003" fill="url(#paint2_linear)"/>
<path d="M26.0664 5.36738V8.43395C26.0639 9.27974 25.3789 9.96479 24.5331 9.96724H7.66659C6.82081 9.96479 6.13576 9.27974 6.1333 8.43395V5.36738C6.13576 4.5216 6.82081 3.83655 7.66659 3.83409H12.3433C12.7062 2.04742 14.277 0.763306 16.0998 0.763306C17.923 0.763306 19.4939 2.04742 19.8564 3.83409H24.5331C25.3789 3.83655 26.0639 4.5216 26.0664 5.36738Z" fill="#FFDFE9"/>
<path d="M23.7663 5.36729V8.43387C23.7638 9.27965 23.0788 9.9647 22.233 9.96716H7.66659C6.82081 9.9647 6.13576 9.27965 6.1333 8.43387V5.36729C6.13576 4.52151 6.82081 3.83646 7.66659 3.834H12.3433C12.622 2.46812 13.6201 1.36158 14.9498 0.943604C16.2795 1.36158 17.2776 2.46812 17.5566 3.834H22.233C23.0788 3.83646 23.7638 4.52151 23.7663 5.36729Z" fill="url(#paint3_linear)"/>
<path d="M41.9749 26.0976C41.0856 25.5732 40.0713 25.2978 39.0385 25.3006H37.3596C37.0683 25.303 36.7788 25.3497 36.5012 25.4385H36.4934C35.2704 25.8912 34.4695 27.0707 34.5001 28.3745C34.5257 27.0914 33.7483 25.9284 32.5527 25.4613C32.4607 25.4308 32.3688 25.3999 32.2768 25.3771C32.2231 25.3693 32.1694 25.3539 32.1157 25.3465C31.9592 25.3156 31.7999 25.3002 31.6405 25.3006H29.9616C26.542 25.3006 23.7667 28.2748 23.7667 31.9471V35.2668C23.7572 37.4233 24.4191 39.5294 25.6604 41.2929C27.3393 43.7348 30.103 45.2056 33.0664 45.2333H35.9337C41.0701 45.2333 45.2331 40.7714 45.2331 35.2668V31.9471C45.2657 29.5565 44.0248 27.3287 41.9749 26.0976Z" fill="#FFDFE9"/>
<path d="M42.9333 29.6474V32.967C42.9333 38.4716 38.7704 42.9335 33.6336 42.9335H30.7663C28.9355 42.9304 27.1505 42.3569 25.6604 41.2929C24.4191 39.5294 23.7572 37.4233 23.7667 35.2668V31.9471C23.7667 28.2748 26.542 25.3006 29.9616 25.3006H31.6406C31.7999 25.3002 31.9592 25.3156 32.1157 25.3465C32.1694 25.3539 32.2231 25.3693 32.2768 25.3771C32.3688 25.3999 32.4607 25.4308 32.5527 25.4613C33.7483 25.9284 34.5257 27.0914 34.5001 28.3745C34.4695 27.0707 35.2704 25.8912 36.4935 25.4385H36.5012C36.7788 25.3497 37.0683 25.303 37.3596 25.3006H39.0385C40.0714 25.2978 41.0856 25.5732 41.9749 26.0976C42.6059 27.1739 42.9368 28.3998 42.9333 29.6474Z" fill="url(#paint4_linear)"/>
<path d="M7.66687 13.8005H9.96701C10.3903 13.8005 10.7335 14.1438 10.7335 14.567V16.8672C10.7335 17.2904 10.3903 17.6336 9.96701 17.6336H7.66687C7.24362 17.6336 6.90039 17.2904 6.90039 16.8672V14.567C6.90039 14.1438 7.24362 13.8005 7.66687 13.8005Z" fill="url(#paint5_linear)"/>
<path d="M7.66687 20.7003H9.96701C10.3903 20.7003 10.7335 21.0435 10.7335 21.4671V23.7669C10.7335 24.1905 10.3903 24.5338 9.96701 24.5338H7.66687C7.24362 24.5338 6.90039 24.1905 6.90039 23.7669V21.4671C6.90039 21.0435 7.24362 20.7003 7.66687 20.7003Z" fill="url(#paint6_linear)"/>
<path d="M7.66687 27.6002H9.96701C10.3903 27.6002 10.7335 27.9435 10.7335 28.3671V30.6668C10.7335 31.0904 10.3903 31.4337 9.96701 31.4337H7.66687C7.24362 31.4337 6.90039 31.0904 6.90039 30.6668V28.3671C6.90039 27.9435 7.24362 27.6002 7.66687 27.6002Z" fill="url(#paint7_linear)"/>
<path d="M7.66687 34.5002H9.96701C10.3903 34.5002 10.7335 34.8435 10.7335 35.2667V37.5669C10.7335 37.9905 10.3903 38.3337 9.96701 38.3337H7.66687C7.24362 38.3337 6.90039 37.9905 6.90039 37.5669V35.2667C6.90039 34.8435 7.24362 34.5002 7.66687 34.5002Z" fill="url(#paint8_linear)"/>
<path d="M3.0672 43.7V6.90072C3.06965 6.05494 3.7547 5.36989 4.60048 5.36743H2.30073C1.45495 5.36989 0.769897 6.05494 0.76709 6.90072V43.7C0.769897 44.5457 1.45495 45.2308 2.30073 45.2333H4.60048C3.7547 45.2308 3.06965 44.5457 3.0672 43.7Z" fill="white"/>
<path d="M1.53378 6.90063V43.6999H0.000488281V6.90063H1.53378Z" fill="white"/>
<path d="M9.20007 7.6671H9.9669C10.3902 7.6671 10.7334 7.32387 10.7334 6.90062C10.7334 6.47702 10.3902 6.13379 9.9669 6.13379H9.20007C8.77683 6.13379 8.43359 6.47702 8.43359 6.90062C8.43359 7.32387 8.77683 7.6671 9.20007 7.6671Z" fill="#EE3675"/>
<path d="M13.0334 7.66708H23C23.4232 7.66708 23.7664 7.32385 23.7664 6.90061C23.7664 6.47702 23.4232 6.13379 23 6.13379H13.0334C12.6102 6.13379 12.2666 6.47702 12.2666 6.90061C12.2666 7.32385 12.6102 7.66708 13.0334 7.66708Z" fill="#EE3675"/>
<path d="M0.767164 13.8006C0.970366 13.7975 1.16479 13.7182 1.31184 13.5781C1.60805 13.276 1.60805 12.7916 1.31184 12.4895L1.19673 12.3975C1.15391 12.3684 1.10759 12.3452 1.05881 12.3284C1.01529 12.3063 0.968611 12.2908 0.92053 12.2824C0.869993 12.274 0.818754 12.2687 0.767164 12.267C0.564314 12.2701 0.369886 12.3494 0.222837 12.4895C0.1537 12.5628 0.0989514 12.6488 0.0621014 12.7425C-0.0537127 13.0285 0.00945858 13.3556 0.222837 13.5781C0.296187 13.6473 0.38217 13.702 0.475874 13.7392C0.568174 13.7785 0.667143 13.7992 0.767164 13.8006Z" fill="#EE3675"/>
<path d="M39.0414 24.5337H37.3754C37.3702 24.5337 37.3646 24.5337 37.3593 24.5337C37.0104 24.5344 36.6637 24.5859 36.3296 24.687C36.3036 24.693 36.278 24.7004 36.2531 24.7091C35.8471 24.8499 35.4698 25.0632 35.1399 25.3387C35.3063 23.5752 36.1794 21.0147 39.493 19.0582C39.8457 18.8381 39.9588 18.3766 39.7475 18.0183C39.5359 17.66 39.0775 17.5354 38.7139 17.7379C36.6556 18.856 35.0501 20.6553 34.1723 22.827C34.1316 22.6943 34.0881 22.5648 34.0404 22.4438C33.6564 21.4337 33.0237 20.5371 32.2004 19.8373V6.90067C32.2004 5.63024 31.1707 4.60056 29.9006 4.60056H26.693C26.369 3.68494 25.505 3.07149 24.5339 3.06728H20.4268C19.7825 1.23007 18.0477 0 16.1007 0C14.1536 0 12.4189 1.23007 11.7745 3.06728H7.66742C6.69634 3.07149 5.83231 3.68494 5.50874 4.60056H2.30108C1.03066 4.60056 0.000976562 5.63024 0.000976562 6.90067V9.96725C0.000976562 10.3905 0.344203 10.7337 0.767445 10.7337C1.19104 10.7337 1.53426 10.3905 1.53426 9.96725V6.90067C1.53426 6.47708 1.87749 6.13385 2.30108 6.13385H5.36766V7.66714H4.60084C3.754 7.66714 3.06755 8.35359 3.06755 9.20043V41.4002C3.06755 42.247 3.754 42.9335 4.60084 42.9335H26.0349C26.5964 43.5167 27.2246 44.0312 27.9072 44.4667H2.30108C1.87749 44.4667 1.53426 44.1235 1.53426 43.6999V16.1004C1.53426 15.6772 1.19104 15.3339 0.767445 15.3339C0.344203 15.3339 0.000976562 15.6772 0.000976562 16.1004V43.6999C0.000976562 44.9704 1.03066 46 2.30108 46H29.9006C30.2589 46.0004 30.6123 45.9151 30.931 45.7509C31.6311 45.9151 32.3481 45.999 33.0676 46H35.9334C41.484 46 46.0003 41.1861 46.0003 35.2667V31.9471C46.0003 27.861 42.8786 24.5337 39.0414 24.5337ZM32.6068 22.9926C32.8061 23.5942 32.9496 24.2125 33.0353 24.8404C32.9588 24.8074 32.8903 24.7635 32.8131 24.7383C32.4359 24.6028 32.0379 24.5337 31.6371 24.5337C31.6308 24.5337 31.6262 24.5337 31.6203 24.5337H29.9596C29.7494 24.5337 29.5426 24.548 29.337 24.5673C29.318 24.5621 29.304 24.5498 29.284 24.5459C26.7467 24.0378 26.7817 21.0775 26.8776 20.018C27.3668 19.9615 27.8588 19.9341 28.3512 19.9359H28.3673C30.2863 19.9531 31.9859 21.1797 32.6068 22.9958V22.9926ZM30.6671 6.90067V18.8978C30.1765 18.6918 29.6609 18.5507 29.1338 18.4777V9.20043C29.1338 8.35359 28.4473 7.66714 27.6005 7.66714H26.834V6.13385H29.9006C30.3239 6.13385 30.6671 6.47708 30.6671 6.90067ZM7.66742 4.60056H12.3441C12.3701 4.5967 12.3954 4.59144 12.4206 4.58442C12.4687 4.57951 12.5157 4.57003 12.5617 4.55599C12.6105 4.54161 12.6575 4.52195 12.7021 4.49774C12.8295 4.4293 12.9341 4.32472 13.0025 4.19733C13.0274 4.15276 13.0474 4.10573 13.0618 4.05695C13.0734 4.03379 13.0836 4.01027 13.0924 3.98571C13.384 2.5584 14.64 1.53329 16.0968 1.53329C17.5539 1.53329 18.8096 2.5584 19.1013 3.98571C19.1104 4.01343 19.1213 4.04045 19.1336 4.06713C19.1455 4.10433 19.1599 4.14118 19.1767 4.17662C19.2023 4.2261 19.2339 4.27278 19.2701 4.31525C19.2922 4.34437 19.316 4.3714 19.342 4.39666C19.3876 4.43597 19.4375 4.46966 19.4908 4.49704C19.5986 4.57038 19.7274 4.60688 19.8572 4.60056H24.5339C24.9575 4.60056 25.3007 4.94379 25.3007 5.36738V8.43396C25.3007 8.8572 24.9575 9.20043 24.5339 9.20043H7.66742C7.24417 9.20043 6.90095 8.8572 6.90095 8.43396V5.36738C6.90095 4.94379 7.24417 4.60056 7.66742 4.60056ZM4.60084 9.20043H5.50874C5.83231 10.116 6.69634 10.7299 7.66742 10.7337H24.5339C25.505 10.7299 26.369 10.116 26.693 9.20043H27.6005V18.4117C25.6205 18.4823 25.4892 19.0336 25.4187 19.3488C25.1488 20.9259 25.286 23.7188 27.1113 25.1931C24.561 26.4716 22.9645 29.0946 23.0006 31.9471V35.2667C22.9943 37.4446 23.626 39.577 24.8175 41.4002H4.60084V9.20043ZM44.467 35.2667C44.467 40.3389 40.6382 44.4667 35.9334 44.4667H33.0676C28.3628 44.4667 24.5339 40.3407 24.5339 35.2667V31.9471C24.5339 28.7064 26.9681 26.0669 29.9596 26.0669H31.6501C31.8694 26.069 32.0867 26.108 32.2934 26.1821C33.1848 26.539 33.7596 27.4139 33.7337 28.3737V29.1335C33.7337 29.5571 34.0769 29.9003 34.5005 29.9003C34.9237 29.9003 35.2669 29.5571 35.2669 29.1335V28.3716C35.2385 27.4128 35.8088 26.5372 36.6978 26.1764L36.7346 26.1659C36.9329 26.102 37.1396 26.0683 37.3477 26.0655H39.0407C42.0329 26.0669 44.467 28.7064 44.467 31.9471V35.2667Z" fill="#EE3675"/>
<path d="M28.8909 27.6396C28.7751 27.6771 26.0664 28.6223 26.0664 32.2002C26.0664 32.6238 26.4096 32.967 26.8332 32.967C27.2565 32.967 27.5997 32.6238 27.5997 32.2002C27.5997 29.7671 29.2955 29.1231 29.3822 29.0922C29.7833 28.9567 29.9988 28.5212 29.863 28.12C29.7272 27.7189 29.292 27.5038 28.8909 27.6396Z" fill="#EE3675"/>
<path d="M9.96724 13.0338H7.6671C6.82025 13.0338 6.13379 13.7203 6.13379 14.5671V16.8673C6.13379 17.7141 6.82025 18.4006 7.6671 18.4006H9.96724C10.8141 18.4006 11.5005 17.7141 11.5005 16.8673V14.5671C11.5005 13.7203 10.8141 13.0338 9.96724 13.0338ZM7.6671 16.8673V14.5671H9.96724V16.8673H7.6671Z" fill="#EE3675"/>
<path d="M9.96724 19.9337H7.6671C6.82025 19.9337 6.13379 20.6202 6.13379 21.467V23.7668C6.13379 24.6137 6.82025 25.3005 7.6671 25.3005H9.96724C10.8141 25.3005 11.5005 24.6137 11.5005 23.7668V21.467C11.5005 20.6202 10.8141 19.9337 9.96724 19.9337ZM7.6671 23.7668V21.467H9.96724V23.7668H7.6671Z" fill="#EE3675"/>
<path d="M9.96724 26.8339H7.6671C6.82025 26.8339 6.13379 27.5203 6.13379 28.3672V30.667C6.13379 31.5138 6.82025 32.2003 7.6671 32.2003H9.96724C10.8141 32.2003 11.5005 31.5138 11.5005 30.667V28.3672C11.5005 27.5203 10.8141 26.8339 9.96724 26.8339ZM7.6671 30.667V28.3672H9.96724V30.667H7.6671Z" fill="#EE3675"/>
<path d="M9.96724 33.7334H7.6671C6.82025 33.7334 6.13379 34.4199 6.13379 35.2667V37.5668C6.13379 38.4137 6.82025 39.1002 7.6671 39.1002H9.96724C10.8141 39.1002 11.5005 38.4137 11.5005 37.5668V35.2667C11.5005 34.4199 10.8141 33.7334 9.96724 33.7334ZM7.6671 37.5668V35.2667H9.96724V37.5668H7.6671Z" fill="#EE3675"/>
<path d="M13.8005 16.8671H24.5335C24.9571 16.8671 25.3003 16.5239 25.3003 16.1003C25.3003 15.6771 24.9571 15.3339 24.5335 15.3339H13.8005C13.3769 15.3339 13.0337 15.6771 13.0337 16.1003C13.0337 16.5239 13.3769 16.8671 13.8005 16.8671Z" fill="#EE3675"/>
<path d="M22.2334 22.2335H13.8005C13.3769 22.2335 13.0337 22.5767 13.0337 23.0003C13.0337 23.4236 13.3769 23.7668 13.8005 23.7668H22.2334C22.657 23.7668 23.0002 23.4236 23.0002 23.0003C23.0002 22.5767 22.657 22.2335 22.2334 22.2335Z" fill="#EE3675"/>
<path d="M20.7001 29.1335H13.8005C13.3769 29.1335 13.0337 29.4768 13.0337 29.9004C13.0337 30.3236 13.3769 30.6668 13.8005 30.6668H20.7001C21.1237 30.6668 21.467 30.3236 21.467 29.9004C21.467 29.4768 21.1237 29.1335 20.7001 29.1335Z" fill="#EE3675"/>
<path d="M20.7001 36.0334H13.8005C13.3769 36.0334 13.0337 36.3767 13.0337 36.8003C13.0337 37.2235 13.3769 37.5667 13.8005 37.5667H20.7001C21.1237 37.5667 21.467 37.2235 21.467 36.8003C21.467 36.3767 21.1237 36.0334 20.7001 36.0334Z" fill="#EE3675"/>
</g>
<defs>
<linearGradient id="paint0_linear" x1="26.2775" y1="41.8073" x2="-4.7098" y2="27.7086" gradientUnits="userSpaceOnUse">
<stop stop-color="#FEEFF4"/>
<stop offset="1" stop-color="#FFFBF5"/>
</linearGradient>
<linearGradient id="paint1_linear" x1="25.8969" y1="39.2677" x2="-0.698854" y2="26.8996" gradientUnits="userSpaceOnUse">
<stop stop-color="#FEEFF4"/>
<stop offset="1" stop-color="#FFFBF5"/>
</linearGradient>
<linearGradient id="paint2_linear" x1="33.6529" y1="26.8759" x2="25.771" y2="21.8463" gradientUnits="userSpaceOnUse">
<stop stop-color="#FEEFF4"/>
<stop offset="1" stop-color="#FFFBF5"/>
</linearGradient>
<linearGradient id="paint3_linear" x1="21.991" y1="9.19169" x2="12.9137" y2="-2.15057" gradientUnits="userSpaceOnUse">
<stop stop-color="#FEEFF4"/>
<stop offset="1" stop-color="#FFFBF5"/>
</linearGradient>
<linearGradient id="paint4_linear" x1="41.0036" y1="41.4182" x2="23.9636" y2="29.5745" gradientUnits="userSpaceOnUse">
<stop stop-color="#FEEFF4"/>
<stop offset="1" stop-color="#FFFBF5"/>
</linearGradient>
<linearGradient id="paint5_linear" x1="10.3476" y1="17.3042" x2="6.76025" y2="15.0104" gradientUnits="userSpaceOnUse">
<stop stop-color="#FEEFF4"/>
<stop offset="1" stop-color="#FFFBF5"/>
</linearGradient>
<linearGradient id="paint6_linear" x1="10.3476" y1="24.2043" x2="6.76006" y2="21.9106" gradientUnits="userSpaceOnUse">
<stop stop-color="#FEEFF4"/>
<stop offset="1" stop-color="#FFFBF5"/>
</linearGradient>
<linearGradient id="paint7_linear" x1="10.3476" y1="31.1042" x2="6.76006" y2="28.8105" gradientUnits="userSpaceOnUse">
<stop stop-color="#FEEFF4"/>
<stop offset="1" stop-color="#FFFBF5"/>
</linearGradient>
<linearGradient id="paint8_linear" x1="10.3476" y1="38.0043" x2="6.76006" y2="35.7105" gradientUnits="userSpaceOnUse">
<stop stop-color="#FEEFF4"/>
<stop offset="1" stop-color="#FFFBF5"/>
</linearGradient>
<clipPath id="clip0">
<rect width="46" height="46" fill="white"/>
</clipPath>
</defs>
</svg>
