<svg width="46" height="46" viewBox="0 0 46 46" fill="none" xmlns="http://www.w3.org/2000/svg">
<path d="M23 0.765991C10.7206 0.765991 0.766602 10.72 0.766602 22.999C0.766602 35.2783 10.7206 45.2324 23 45.2324C35.2789 45.2324 45.2333 35.2783 45.2333 22.999C45.2333 10.72 35.2789 0.765991 23 0.765991ZM23 42.166C15.515 42.1731 8.71221 37.8184 5.58485 31.0181C2.45748 24.2178 3.57927 16.2187 8.45603 10.5409L10.7945 12.879L30.7968 32.8817L35.458 37.5429C31.9971 40.5333 27.5738 42.1746 23 42.166ZM37.6277 35.3732L10.6336 8.37871C18.237 1.93523 29.5116 2.40014 36.5591 9.44768C43.6067 16.4952 44.0712 27.7694 37.6277 35.3732Z" fill="url(#paint0_linear)"/>
<path d="M45.2333 22.999C45.2333 35.2783 35.2789 45.2324 22.9999 45.2324C22.6163 45.2324 22.2331 45.2249 21.8574 45.2017C33.6665 44.5808 42.9233 34.8248 42.9233 22.999C42.9233 11.1735 33.6665 1.41751 21.8574 0.796676C22.2331 0.773484 22.6163 0.765991 22.9999 0.765991C35.2789 0.765991 45.2333 10.72 45.2333 22.999Z" fill="#FFDFE9"/>
<path d="M26.8331 11.7984C26.7218 13.8068 25.0091 15.3482 23 15.2483C20.9908 15.3482 19.2778 13.8068 19.1665 11.7984C19.1665 10.4129 21.1928 5.57078 22.2992 3.03071C22.422 2.75347 22.6967 2.57507 23 2.57507C23.3029 2.57507 23.5776 2.75347 23.7007 3.03071C24.8068 5.57078 26.8331 10.4129 26.8331 11.7984Z" fill="url(#paint1_linear)"/>
<path d="M25.2999 10.682C25.2999 12.3572 24.2702 13.7148 23 13.7148C21.7294 13.7148 20.6997 12.3572 20.6997 10.682C20.6997 9.4646 21.9157 5.20724 22.5797 2.97474C22.7399 2.43811 23.2598 2.43811 23.4232 2.97474C24.084 5.2051 25.2999 9.4646 25.2999 10.682Z" fill="url(#paint2_linear)"/>
<path d="M29.8383 17.7245C29.3552 18.5113 28.7094 19.1856 27.9448 19.7026L25.683 20.8986C25.6556 20.9129 25.6274 20.9258 25.5988 20.9368C24.7511 21.2918 23.7713 20.96 23.3142 20.1626C23.219 20.0049 23.1537 19.8307 23.1223 19.6491C22.7416 17.934 22.9778 16.1396 23.7895 14.5815C24.9855 12.5648 27.4235 11.5301 28.8646 11.0777C29.2371 10.9574 29.616 10.8575 29.9992 10.7787C29.9992 10.7787 31.6016 14.7499 29.8383 17.7245Z" fill="url(#paint3_linear)"/>
<path d="M28.3433 16.8275C27.8574 17.6146 27.2094 18.289 26.4419 18.8056L24.188 20.0016C24.1613 20.0152 24.1331 20.0255 24.1038 20.0323C23.8526 20.1311 23.5836 20.1757 23.3142 20.1625C23.219 20.0048 23.1537 19.8307 23.1223 19.6491C22.7416 17.9339 22.9778 16.1396 23.7895 14.5814C24.9855 12.5648 27.4235 11.5301 28.8646 11.0776C29.2022 12.4806 29.5012 14.8726 28.3433 16.8275Z" fill="url(#paint4_linear)"/>
<path d="M29.8383 25.7011C29.3552 26.4875 28.7094 27.1618 27.9448 27.6788L25.683 28.8748C25.6556 28.8891 25.6274 28.9019 25.5988 28.9134C24.7511 29.2684 23.7713 28.9362 23.3142 28.1391C23.219 27.981 23.1537 27.8069 23.1223 27.6253C22.7416 25.9102 22.9778 24.1158 23.7895 22.5577C24.9855 20.5414 27.4235 19.5063 28.8646 19.0539C29.2371 18.9336 29.616 18.8341 29.9992 18.7549C29.9992 18.7549 31.6016 22.7264 29.8383 25.7011Z" fill="#FFDFE9"/>
<path d="M28.3433 24.8041C27.8574 25.5908 27.2094 26.2652 26.4419 26.7818L24.188 27.975C24.1613 27.9885 24.1331 27.9989 24.1038 28.0057C23.8526 28.1045 23.5836 28.1487 23.3142 28.1359C23.219 27.9782 23.1537 27.8037 23.1223 27.6221C22.7416 25.907 22.9778 24.1126 23.7895 22.5545C24.9855 20.5382 27.4235 19.5031 28.8646 19.051C29.2022 20.4568 29.5012 22.8488 28.3433 24.8041Z" fill="#FFDFE9"/>
<path d="M29.8383 33.6941C29.3552 34.4809 28.7094 35.1552 27.9448 35.6723L25.683 36.8682C25.6556 36.8825 25.6274 36.8954 25.5988 36.9064C24.7511 37.2614 23.7713 36.9296 23.3142 36.1322C23.219 35.9745 23.1537 35.8003 23.1223 35.6184C22.7416 33.9036 22.9778 32.1089 23.7895 30.5507C24.9855 28.5344 27.4235 27.4994 28.8646 27.0473C29.2371 26.927 29.616 26.8271 29.9992 26.7483C29.9992 26.7483 31.6016 30.7195 29.8383 33.6941Z" fill="url(#paint5_linear)"/>
<path d="M28.3433 32.7972C27.8574 33.5843 27.2094 34.2587 26.4419 34.7753L24.188 35.9713C24.1613 35.9849 24.1331 35.9952 24.1038 36.002C23.8526 36.1008 23.5836 36.1454 23.3142 36.1322C23.219 35.9745 23.1537 35.8004 23.1223 35.6185C22.7416 33.9037 22.9778 32.109 23.7895 30.5508C24.9855 28.5345 27.4235 27.4994 28.8646 27.0474C29.2022 28.4503 29.5012 30.8423 28.3433 32.7972Z" fill="url(#paint6_linear)"/>
<path d="M16.1612 17.7244C16.6443 18.5112 17.2901 19.1855 18.0547 19.7025L20.3165 20.8985C20.344 20.9128 20.3722 20.9256 20.4007 20.9367C21.2488 21.2917 22.2283 20.9599 22.6857 20.1624C22.7809 20.0047 22.8459 19.8306 22.8773 19.649C23.258 17.9339 23.0218 16.1395 22.2101 14.5814C21.0141 12.5647 18.5764 11.53 17.1349 11.0776C16.7624 10.9573 16.3835 10.8574 16.0003 10.7786C16.0003 10.7786 14.3979 14.7498 16.1612 17.7244Z" fill="#FFDFE9"/>
<path d="M17.6566 16.8275C18.1426 17.6146 18.7909 18.289 19.558 18.8056L21.8119 20.0016C21.8387 20.0152 21.8672 20.0255 21.8961 20.0323C22.1473 20.1311 22.4163 20.1757 22.6861 20.1625C22.7813 20.0048 22.8463 19.8307 22.8777 19.6491C23.2584 17.9339 23.0222 16.1396 22.2105 14.5814C21.0145 12.5648 18.5768 11.5301 17.1353 11.0776C16.7978 12.4806 16.4988 14.8726 17.6566 16.8275Z" fill="#FFDFE9"/>
<path d="M16.1612 25.7011C16.6443 26.4875 17.2901 27.1618 18.0547 27.6788L20.3165 28.8748C20.344 28.8891 20.3722 28.9019 20.4007 28.9134C21.2488 29.2684 22.2283 28.9362 22.6857 28.1391C22.7809 27.981 22.8459 27.8069 22.8773 27.6253C23.258 25.9102 23.0218 24.1158 22.2101 22.5577C21.0141 20.5414 18.5764 19.5063 17.1349 19.0539C16.7624 18.9336 16.3835 18.8341 16.0003 18.7549C16.0003 18.7549 14.3979 22.7264 16.1612 25.7011Z" fill="url(#paint7_linear)"/>
<path d="M17.6566 24.8042C18.1426 25.5909 18.7909 26.2653 19.558 26.7819L21.8119 27.9779C21.8387 27.9915 21.8672 28.0018 21.8961 28.0086C22.1473 28.1078 22.4163 28.152 22.6861 28.1392C22.7813 27.9811 22.8463 27.807 22.8777 27.6254C23.2584 25.9102 23.0222 24.1159 22.2105 22.5577C21.0145 20.5415 18.5768 19.5064 17.1353 19.054C16.7978 20.4569 16.4988 22.8489 17.6566 24.8042Z" fill="url(#paint8_linear)"/>
<path d="M16.1612 33.6941C16.6443 34.4809 17.2901 35.1552 18.0547 35.6723L20.3165 36.8682C20.344 36.8825 20.3722 36.8954 20.4007 36.9064C21.2488 37.2614 22.2283 36.9296 22.6857 36.1322C22.7809 35.9745 22.8459 35.8003 22.8773 35.6184C23.258 33.9036 23.0218 32.1089 22.2101 30.5507C21.0141 28.5344 18.5764 27.4994 17.1349 27.0473C16.7624 26.927 16.3835 26.8271 16.0003 26.7483C16.0003 26.7483 14.3979 30.7195 16.1612 33.6941Z" fill="#FFDFE9"/>
<path d="M17.6566 32.7972C18.1426 33.5843 18.7909 34.2587 19.558 34.7753L21.8119 35.9713C21.8387 35.9849 21.8672 35.9952 21.8961 36.002C22.1473 36.1008 22.4163 36.1454 22.6861 36.1322C22.7813 35.9745 22.8463 35.8004 22.8777 35.6185C23.2584 33.9037 23.0222 32.109 22.2105 30.5508C21.0145 28.5345 18.5768 27.4994 17.1353 27.0474C16.7978 28.4503 16.4988 30.8423 17.6566 32.7972Z" fill="#FFDFE9"/>
<path d="M23 45.2324C22.6164 45.2324 22.2332 45.2249 21.8575 45.2017C22.2382 45.182 22.6164 45.1524 22.9921 45.1135C11.6626 43.9375 3.05441 34.3895 3.05441 22.999C3.05441 11.6088 11.6626 2.06082 22.9921 0.884806C22.6164 0.846272 22.2382 0.817014 21.8575 0.796676C22.2332 0.773484 22.6164 0.765991 23 0.765991C10.7206 0.765991 0.766602 10.72 0.766602 22.999C0.766602 35.2783 10.7206 45.2324 23 45.2324Z" fill="white"/>
<path d="M1.53318 23.0001C1.54495 26.2195 2.27639 29.3961 3.67398 32.2966C4.10785 33.2014 4.60024 34.077 5.14829 34.918C5.43337 35.3305 5.74629 35.7244 6.04279 36.1283C6.33501 36.5368 6.65756 36.9229 7.00722 37.2829C8.33631 38.7925 9.87912 40.0991 11.5868 41.1617C13.283 42.2374 15.1255 43.0638 17.0576 43.615C18.9925 44.1581 20.9903 44.4446 23.0001 44.4667V45.9999C20.8479 45.9774 18.7085 45.6709 16.6366 45.0883C14.5657 44.4963 12.5908 43.6093 10.7725 42.4551C8.94358 41.3172 7.29088 39.9189 5.86581 38.304C5.49117 37.9176 5.14508 37.5045 4.83002 37.0684C4.51175 36.6353 4.1785 36.2128 3.87308 35.7704C3.28507 34.8702 2.757 33.9318 2.29245 32.962C0.794953 29.8539 0.0114176 26.45 0 23.0001H1.53318Z" fill="white"/>
<path d="M1.53322 29.8212C1.63419 29.8308 1.73588 29.8205 1.83222 29.7905C2.22577 29.6585 2.45483 29.2496 2.36135 28.845C2.3089 28.6551 2.18509 28.4924 2.01561 28.3911L1.88145 28.333C1.83186 28.3155 1.78048 28.3041 1.72803 28.3001C1.68058 28.2894 1.63169 28.2859 1.58317 28.2894C1.53179 28.293 1.48041 28.3005 1.42974 28.3115C1.23279 28.3622 1.06331 28.4878 0.957696 28.6619C0.756817 29.0398 0.877416 29.5083 1.236 29.742C1.32877 29.7884 1.42974 29.8151 1.53322 29.8212Z" fill="#EE3675"/>
<path d="M23.0001 0C10.3034 0.0142721 0.0142721 10.3034 0 23.0001L0.0767123 24.584L0.12274 25.375L0.241554 26.1596C0.267958 26.3633 0.375712 26.5482 0.540554 26.6713C0.705396 26.794 0.913055 26.8454 1.11643 26.8125C1.52711 26.744 1.81112 26.3637 1.7601 25.9502L1.64771 25.2187L1.60989 24.4791L1.53318 23.0001C1.53318 11.1443 11.1443 1.53318 23.0001 1.53318C34.8556 1.53318 44.4667 11.1443 44.4667 23.0001C44.4667 34.8556 34.8556 44.4667 23.0001 44.4667C20.9903 44.4446 18.9925 44.1581 17.0576 43.615C15.1255 43.0638 13.283 42.2374 11.5868 41.1617C9.87911 40.0991 8.33631 38.7925 7.00722 37.2829C6.65756 36.9229 6.33501 36.5368 6.04279 36.1283C5.74628 35.7244 5.43337 35.3305 5.14829 34.918C4.60024 34.077 4.10785 33.2014 3.67398 32.2966L3.3525 31.6297C3.17553 31.2565 2.7413 31.0827 2.35596 31.2308C2.16186 31.3057 2.00772 31.4574 1.92994 31.6501C1.85216 31.8427 1.85786 32.0593 1.94564 32.2477L2.28995 32.962C2.75451 33.9318 3.28257 34.8702 3.87094 35.7704C4.17743 36.2128 4.50961 36.6353 4.82752 37.0684C5.14186 37.5045 5.48689 37.9176 5.86046 38.304C7.28553 39.9189 8.93823 41.3172 10.7672 42.4551C12.5872 43.6097 14.5639 44.4967 16.6366 45.0883C18.7085 45.6709 20.8479 45.9774 23.0001 45.9999C35.7026 45.9999 45.9999 35.7026 45.9999 23.0001C45.9999 10.2973 35.7026 0 23.0001 0V0Z" fill="#EE3675"/>
<path d="M8.97455 9.98297C8.9667 9.97584 8.96456 9.96656 8.95706 9.95978C8.92174 9.93623 8.88499 9.91554 8.84645 9.8977C8.80614 9.86773 8.76261 9.84204 8.71694 9.82098C8.66698 9.806 8.6156 9.79637 8.56351 9.79173C8.52069 9.78388 8.47681 9.77995 8.43328 9.7796C8.38119 9.78388 8.32981 9.79387 8.27985 9.80957C8.23561 9.81706 8.19244 9.82883 8.15033 9.84489C8.10288 9.86951 8.05792 9.89912 8.01689 9.93373C7.98228 9.95264 7.9491 9.97441 7.91806 9.99903C7.91128 10.0058 7.90878 10.0158 7.902 10.0226C7.89522 10.0297 7.88595 10.0326 7.87881 10.0411C1.11243 17.9421 1.56664 29.7198 8.92174 37.076C16.2768 44.4325 28.0545 44.8885 35.9566 38.1232C35.9644 38.1171 35.9673 38.1071 35.9751 38.1003C35.9826 38.0936 35.9912 38.0918 35.998 38.085C36.0233 38.0532 36.0458 38.0194 36.0654 37.9837C36.0982 37.9434 36.1271 37.9002 36.1514 37.8542C36.1685 37.8092 36.181 37.7625 36.1889 37.7146C36.2031 37.6679 36.2128 37.6201 36.2174 37.5712C36.216 37.5227 36.2099 37.4742 36.1996 37.4263C36.1953 37.3778 36.186 37.3297 36.1721 37.2829C36.1507 37.2362 36.125 37.1916 36.0954 37.1495C36.0782 37.1124 36.0579 37.0763 36.0347 37.0424C36.0279 37.0346 36.0187 37.0317 36.0126 37.0246C36.0065 37.0178 36.0033 37.0078 35.9965 37.001L31.3289 32.3294C31.4352 31.6362 31.4609 30.9329 31.4056 30.2336L37.0883 35.9153C37.0958 35.9228 37.1065 35.9253 37.1151 35.9328C37.1233 35.9406 37.1265 35.9506 37.1351 35.9581C37.179 35.9906 37.2261 36.0177 37.276 36.0395C37.3003 36.0569 37.326 36.0726 37.3527 36.0862C37.4394 36.1212 37.5322 36.1394 37.6257 36.1401C37.7295 36.139 37.8326 36.1169 37.9275 36.0748C37.9582 36.0573 37.9871 36.0377 38.015 36.0166C38.0703 35.9895 38.1216 35.9553 38.1684 35.9153C38.1769 35.9067 38.1791 35.896 38.1869 35.8878C38.1944 35.8793 38.2044 35.8778 38.2112 35.8693C43.0733 30.129 44.2875 22.1399 41.3507 15.2144C38.4135 8.28924 31.8262 3.60836 24.3202 3.11348L24.291 3.04997C24.063 2.54081 23.5574 2.21362 22.9997 2.21362C22.442 2.21362 21.9361 2.54081 21.7081 3.04997L21.6727 3.12632C17.424 3.39107 13.3764 5.02807 10.1384 7.7915C10.1292 7.79863 10.1259 7.80934 10.1177 7.81683C10.1092 7.82468 10.0992 7.82682 10.0917 7.83467C10.0671 7.86571 10.0449 7.8989 10.0257 7.93351C9.99321 7.97347 9.96467 8.01664 9.94041 8.06231C9.92257 8.10727 9.90937 8.15401 9.9008 8.20182C9.88724 8.24856 9.87797 8.29673 9.87297 8.34525C9.87333 8.39342 9.87868 8.44159 9.88903 8.48869C9.89331 8.53757 9.90259 8.5861 9.91686 8.63355C9.93648 8.67922 9.96039 8.72275 9.98893 8.76378C10.0053 8.80125 10.0253 8.83764 10.0478 8.87189C10.0557 8.88046 10.0656 8.8826 10.0731 8.89116C10.081 8.89937 10.0831 8.91007 10.0917 8.91863L14.6149 13.4422C14.5406 14.179 14.5549 14.9218 14.657 15.6554L8.99738 9.99582C8.99132 9.99189 8.98132 9.98975 8.97455 9.98297ZM4.5998 22.9991C4.60587 18.8973 5.98812 14.9165 8.52533 11.6931L15.4159 18.5847C15.3641 18.644 15.322 18.711 15.291 18.7835C15.2207 18.9597 13.5684 23.1486 15.499 26.4026C15.554 26.4968 15.6232 26.5857 15.6846 26.6784C15.5062 26.7576 15.3652 26.9018 15.2903 27.0816C15.2196 27.2589 13.5684 31.4449 15.4972 34.7018C16.6137 36.3517 18.2364 37.5937 20.121 38.2399C20.2163 38.2734 20.3133 38.3012 20.4118 38.3233L22.1566 41.3779C12.3385 40.9162 4.61194 32.8282 4.5998 22.9991ZM16.5077 11.6924C17.7344 12.0367 20.3711 12.9812 21.5525 14.9732C21.9343 15.6451 22.1648 16.3922 22.2286 17.1625C22.189 17.6649 22.189 18.1694 22.2286 18.6714C22.2019 18.9697 22.1651 19.2562 22.1191 19.5149C22.0695 19.7925 21.8968 20.033 21.6492 20.1679C21.363 20.3256 21.0227 20.3509 20.7169 20.2371L20.6676 20.2171C19.9726 19.7418 19.2269 19.3451 18.4444 19.034C17.79 18.5862 17.2366 18.0067 16.8192 17.3327C15.6628 15.3785 16.1766 12.8502 16.5077 11.6924ZM26.6155 12.9191C26.7061 12.8841 26.7893 12.832 26.8599 12.7657C27.6927 12.3054 28.5761 11.9432 29.492 11.6863C29.8257 12.8442 30.3355 15.3725 29.1798 17.3274C28.7627 18.0014 28.209 18.5805 27.5546 19.0279C26.7722 19.3387 26.0264 19.7351 25.3314 20.21H25.3235C25.0078 20.3406 24.6499 20.322 24.3491 20.1597C24.1019 20.0244 23.9288 19.7847 23.8792 19.5071C23.8332 19.248 23.7964 18.9619 23.769 18.6636C23.8089 18.1616 23.8089 17.6571 23.769 17.155C23.8321 16.3851 24.0626 15.6383 24.4444 14.9668C24.9903 14.1179 25.7356 13.4158 26.6155 12.9216V12.9191ZM29.1831 33.9183C28.2397 35.2706 26.8863 36.2839 25.3228 36.8084C25.0067 36.9375 24.6495 36.9183 24.3491 36.7556C24.1029 36.6221 23.9309 36.3841 23.8817 36.1083C23.8339 35.8411 23.7964 35.5449 23.769 35.2367C23.8057 34.7518 23.8057 34.2651 23.769 33.7802C23.8289 33.0006 24.0605 32.2438 24.4472 31.5645C25.6265 29.571 28.2654 28.6251 29.4913 28.2801C29.8232 29.4408 30.3377 31.9709 29.1831 33.9204V33.9183ZM22.9876 39.7448L22.113 38.2113C22.2115 38.1785 22.3079 38.1399 22.4021 38.0957C22.6254 37.9651 22.8274 37.8003 23 37.6072C23.1727 37.8003 23.3743 37.9651 23.598 38.0957C23.6748 38.1385 23.7604 38.1578 23.8403 38.1931L22.9876 39.7448ZM17.0775 20.1604C17.293 20.2324 17.5274 20.3138 17.7751 20.4148C18.5176 20.7002 19.2229 21.0745 19.8759 21.5294C20.5527 21.9833 21.1243 22.5766 21.5525 23.2699C21.9339 23.9425 22.1648 24.6896 22.2286 25.4603C22.189 25.9623 22.189 26.4665 22.2286 26.9681C22.2019 27.2664 22.1651 27.5526 22.1191 27.8116C22.0692 28.0874 21.8972 28.3254 21.6513 28.4596C21.3655 28.6187 21.0248 28.6469 20.7169 28.5363L20.6701 28.517C19.9758 28.0439 19.2326 27.6468 18.4537 27.3324C17.7929 26.8864 17.2352 26.3041 16.8174 25.6251C15.6614 23.6763 16.1727 21.1455 16.5063 19.987C16.6725 20.0337 16.8652 20.0922 17.075 20.1618L17.0775 20.1604ZM28.2261 20.4141C28.6414 20.2492 29.0646 20.1054 29.4942 19.9841C29.8292 21.1402 30.3423 23.6638 29.1791 25.6251C28.762 26.3031 28.2051 26.8843 27.5453 27.3303C26.7664 27.6432 26.0232 28.0393 25.3289 28.5117C25.0106 28.6401 24.651 28.6198 24.3491 28.4556C24.104 28.3222 23.932 28.0849 23.8817 27.8102C23.8357 27.5508 23.7989 27.2643 23.7711 26.9667C23.8114 26.4651 23.8114 25.9605 23.7711 25.4589C23.835 24.6878 24.0658 23.9403 24.4472 23.2678C24.8772 22.5731 25.4502 21.9786 26.1288 21.5241C26.7807 21.0713 27.485 20.6988 28.2261 20.4141ZM23.1296 30.7856C23.0796 30.8691 23.045 30.9565 23 31.0417C22.9547 30.9565 22.9233 30.8691 22.8705 30.7856C22.6757 30.463 22.4527 30.1579 22.204 29.8746C22.27 29.8447 22.3414 29.8304 22.4056 29.7944C22.6275 29.6645 22.8281 29.5011 23 29.3098C23.1717 29.5011 23.3722 29.6648 23.5941 29.7951C23.6583 29.8304 23.7297 29.8457 23.7957 29.8754C23.5474 30.1587 23.3244 30.4634 23.1296 30.7856ZM16.507 28.2815C17.7337 28.6266 20.3719 29.5742 21.5511 31.5659C21.9393 32.2456 22.1723 33.0027 22.2333 33.7831C22.1965 34.2679 22.1965 34.755 22.2333 35.2399C22.2058 35.5464 22.168 35.8439 22.1205 36.1108C22.0713 36.3866 21.8993 36.6253 21.6528 36.7588C21.3527 36.9215 20.9952 36.9407 20.6791 36.8116C19.1159 36.2871 17.7626 35.2738 16.8192 33.9211C15.6621 31.9709 16.1766 29.4408 16.507 28.2815ZM23.5988 21.5041C23.6608 21.5387 23.729 21.5533 23.7925 21.5808C23.5442 21.8627 23.3212 22.1663 23.1264 22.4878C23.0782 22.5706 23.0436 22.6558 23 22.7393C22.9562 22.6558 22.9233 22.5706 22.8734 22.4885C22.6789 22.1667 22.4559 21.863 22.2072 21.5808C22.2707 21.5519 22.3389 21.5373 22.401 21.5041C22.625 21.3739 22.8274 21.209 23 21.016C23.1727 21.209 23.3747 21.3742 23.5988 21.5052V21.5041ZM34.306 37.4738C31.3107 39.828 27.6549 41.187 23.8492 41.3608L25.5055 38.3473C25.6322 38.3198 25.7567 38.2841 25.8787 38.2399C27.763 37.5937 29.3861 36.352 30.5025 34.7025C30.632 34.4813 30.7473 34.2526 30.8483 34.0171L34.306 37.4738ZM41.3999 22.9991C41.3935 27.0606 40.0412 31.005 37.555 34.2162L30.8675 27.5294C30.7847 27.275 30.7219 27.1134 30.7095 27.0816C30.6349 26.9014 30.4936 26.7569 30.3155 26.6777C30.3758 26.5864 30.4444 26.4982 30.4993 26.4048C32.4314 23.1486 30.7794 18.9597 30.7087 18.7835C30.6342 18.6051 30.4947 18.4616 30.3184 18.3817C30.3783 18.2918 30.4458 18.2055 30.4993 18.1134C32.4314 14.8505 30.7794 10.668 30.708 10.4918C30.571 10.1532 30.2142 9.95835 29.8556 10.0258C28.9212 10.2224 28.011 10.5192 27.14 10.9103C26.7318 8.76057 26.0325 6.67649 25.0616 4.71587C34.3784 5.74203 41.4238 13.6259 41.3999 22.9991ZM25.6457 11.3527C25.6457 11.4794 25.6279 11.6029 25.619 11.7277C24.6071 12.3439 23.7533 13.1881 23.1264 14.1932C23.0782 14.2753 23.0436 14.3613 23 14.4441C22.9554 14.3606 22.9233 14.2746 22.8727 14.1918C22.2454 13.187 21.3919 12.3429 20.3801 11.727C20.3704 11.6011 20.354 11.4708 20.354 11.3527C20.354 10.166 21.3402 7.39224 23 3.90629C24.6588 7.3901 25.6457 10.166 25.6457 11.3527ZM11.789 8.45015C14.4325 6.38427 17.5991 5.09479 20.9338 4.72586C19.9658 6.68363 19.2697 8.7645 18.8637 10.9103C17.9927 10.5192 17.0825 10.2224 16.1484 10.0258C15.7895 9.95835 15.4326 10.1532 15.2956 10.4918C15.1568 10.8546 15.0398 11.2254 14.9445 11.6021L11.789 8.45015Z" fill="#EE3675"/>
<defs>
<linearGradient id="paint0_linear" x1="40.7564" y1="41.411" x2="-0.858893" y2="14.8007" gradientUnits="userSpaceOnUse">
<stop stop-color="#FEEFF4"/>
<stop offset="1" stop-color="#FFFBF5"/>
</linearGradient>
<linearGradient id="paint1_linear" x1="26.0612" y1="14.1634" x2="17.2674" y2="10.763" gradientUnits="userSpaceOnUse">
<stop stop-color="#FEEFF4"/>
<stop offset="1" stop-color="#FFFBF5"/>
</linearGradient>
<linearGradient id="paint2_linear" x1="24.8368" y1="12.7573" x2="19.1664" y2="11.2603" gradientUnits="userSpaceOnUse">
<stop stop-color="#FEEFF4"/>
<stop offset="1" stop-color="#FFFBF5"/>
</linearGradient>
<linearGradient id="paint3_linear" x1="29.8887" y1="20.1934" x2="21.6102" y2="16.2251" gradientUnits="userSpaceOnUse">
<stop stop-color="#FEEFF4"/>
<stop offset="1" stop-color="#FFFBF5"/>
</linearGradient>
<linearGradient id="paint4_linear" x1="28.5414" y1="19.3839" x2="21.6563" y2="16.3689" gradientUnits="userSpaceOnUse">
<stop stop-color="#FEEFF4"/>
<stop offset="1" stop-color="#FFFBF5"/>
</linearGradient>
<linearGradient id="paint5_linear" x1="29.8887" y1="36.163" x2="21.6102" y2="32.1947" gradientUnits="userSpaceOnUse">
<stop stop-color="#FEEFF4"/>
<stop offset="1" stop-color="#FFFBF5"/>
</linearGradient>
<linearGradient id="paint6_linear" x1="28.5414" y1="35.3536" x2="21.6563" y2="32.3386" gradientUnits="userSpaceOnUse">
<stop stop-color="#FEEFF4"/>
<stop offset="1" stop-color="#FFFBF5"/>
</linearGradient>
<linearGradient id="paint7_linear" x1="22.2773" y1="28.1698" x2="13.9987" y2="24.2016" gradientUnits="userSpaceOnUse">
<stop stop-color="#FEEFF4"/>
<stop offset="1" stop-color="#FFFBF5"/>
</linearGradient>
<linearGradient id="paint8_linear" x1="22.4286" y1="27.3604" x2="15.5434" y2="24.3455" gradientUnits="userSpaceOnUse">
<stop stop-color="#FEEFF4"/>
<stop offset="1" stop-color="#FFFBF5"/>
</linearGradient>
</defs>
</svg>
