<svg width="46" height="46" viewBox="0 0 46 46" fill="none" xmlns="http://www.w3.org/2000/svg">
<g clip-path="url(#clip0)">
<path d="M44.2217 34.9371L29.8543 43.6848C29.0134 44.1965 28.048 44.467 27.0637 44.4668H7.66699V27.6L9.81366 27.6001C10.1605 27.5977 10.5068 27.6259 10.8487 27.6845C12.0693 27.8625 13.2205 28.3627 14.1837 29.1335C14.5075 29.3915 14.8539 29.6199 15.2187 29.8158C16.2422 30.3725 17.3885 30.6651 18.5537 30.6668H22.5633C23.9114 30.6648 25.1609 31.3726 25.8523 32.5298L25.9213 32.6448C26.3566 33.3728 26.4329 34.2605 26.1283 35.0521C25.9931 35.4213 25.7785 35.7563 25.4997 36.0335H27.3013C27.6325 36.0336 27.9615 35.9792 28.275 35.8725L42.466 31.1421L42.5197 31.1268C43.3657 30.8747 44.2793 31.1742 44.812 31.8781V31.8858C45.1685 32.359 45.3077 32.9611 45.1952 33.5427C45.0826 34.1243 44.7289 34.631 44.2217 34.9371Z" fill="url(#paint0_linear)"/>
<path d="M41.9217 34.1705L27.5543 42.9181C26.7134 43.4298 25.748 43.7003 24.7637 43.7001H7.66699V27.6L9.81366 27.6001C10.1605 27.5977 10.5068 27.6259 10.8487 27.6845C11.2135 27.8803 11.5599 28.1087 11.8837 28.3668C12.8468 29.1375 13.998 29.6377 15.2187 29.8158C15.5605 29.8743 15.9068 29.9025 16.2537 29.9001H20.2633C21.0929 29.8993 21.9002 30.1684 22.5633 30.6668C22.9602 30.9655 23.2959 31.3377 23.5523 31.7631L23.6213 31.8781C24.2751 32.9706 24.1012 34.3679 23.1997 35.2668H25.0013C25.3325 35.267 25.6615 35.2126 25.975 35.1058L26.1283 35.0521C25.9931 35.4213 25.7785 35.7563 25.4997 36.0335H27.3013C27.6325 36.0336 27.9615 35.9792 28.275 35.8725L42.466 31.1421L42.5197 31.1268C42.873 31.6004 43.0096 32.2014 42.8957 32.7812C42.7818 33.3611 42.4279 33.8657 41.9217 34.1705Z" fill="url(#paint1_linear)"/>
<path d="M44.4674 9.8748C44.4674 15.9391 40.7184 18.3695 38.219 20.7998C35.7197 23.2301 27.6007 29.9001 27.6007 29.9001C27.6007 29.9001 19.4817 23.2225 16.9824 20.7921C15.7418 19.7026 14.5571 18.5511 13.4327 17.3421C13.4206 17.3309 13.4103 17.318 13.402 17.3038C11.6161 15.2446 10.6645 12.5921 10.734 9.86714C10.734 3.8028 14.483 0.766802 19.4817 0.766802C21.3554 0.74771 23.1884 1.31316 24.7257 2.38447C24.994 2.5838 25.247 2.7908 25.4847 2.99014C26.3464 3.72848 27.0638 4.62008 27.6007 5.6198C29.2057 2.62933 32.3257 0.764359 35.7197 0.766802C37.4938 0.723658 39.2435 1.18635 40.7644 2.1008C43.0414 3.53447 44.4674 6.1258 44.4674 9.8748Z" fill="url(#paint2_linear)"/>
<path d="M42.1674 7.5748C42.1674 13.6391 38.4184 16.0695 35.919 18.4998C33.4197 20.9301 25.3007 27.6001 25.3007 27.6001C25.3007 27.6001 17.1817 20.9225 14.6824 18.4998C14.2914 18.1165 13.8697 17.7331 13.4327 17.3421C13.4206 17.3309 13.4103 17.318 13.402 17.3038C11.6161 15.2446 10.6645 12.5921 10.734 9.86714C10.734 3.8028 14.483 0.766802 19.4817 0.766802C21.3554 0.74771 23.1884 1.31316 24.7257 2.38447C24.9396 2.68203 25.1317 2.99462 25.3007 3.3198C25.3467 3.2278 25.408 3.1128 25.4847 2.99014C26.3464 3.72847 27.0638 4.62008 27.6007 5.6198C29.2057 2.62933 32.3257 0.764359 35.7197 0.766802C37.4938 0.723658 39.2435 1.18635 40.7644 2.1008C41.7459 3.75377 42.2328 5.65352 42.1674 7.5748Z" fill="url(#paint3_linear)"/>
<path d="M6.13327 26.0668H2.29993C1.4531 26.0668 0.766602 26.7533 0.766602 27.6001V43.7001C0.766602 44.5469 1.4531 45.2334 2.29993 45.2334H6.13327C6.98011 45.2334 7.6666 44.5469 7.6666 43.7001V27.6001C7.6666 26.7533 6.98011 26.0668 6.13327 26.0668Z" fill="#FFDFE9"/>
<path d="M5.36654 27.6001V43.7001C5.36654 44.5434 4.87357 45.2334 4.27097 45.2334H2.62877C2.02617 45.2334 1.5332 44.5434 1.5332 43.7001V27.6001C1.5332 26.7568 2.02617 26.0668 2.62877 26.0668H4.27097C4.87357 26.0668 5.36654 26.7568 5.36654 27.6001Z" fill="#FFDFE9"/>
<path d="M19.1674 3.8335C16.8674 3.8335 13.8008 5.85903 13.8008 9.96683H17.5873C17.5873 9.96683 16.3936 3.8335 19.1674 3.8335Z" fill="url(#paint4_linear)"/>
<path d="M9.75293 44.4667H9.96683V43.7001C9.96517 43.9701 9.89132 44.2348 9.75293 44.4667Z" fill="white"/>
<path d="M3.0666 43.7001V27.6001C3.06913 26.7543 3.75415 26.0693 4.59994 26.0668H2.29994C1.45415 26.0693 0.769128 26.7543 0.766602 27.6001V43.7001C0.769128 44.5459 1.45415 45.2309 2.29994 45.2334H4.59994C3.75415 45.2309 3.06913 44.5459 3.0666 43.7001Z" fill="white"/>
<path d="M42.5188 31.1268L42.4652 31.1421L28.2742 35.8724C28.1326 35.9193 27.9879 35.9557 27.841 35.9813C27.8257 35.9974 27.8149 36.0173 27.7988 36.0334H29.6005C29.9317 36.0336 30.2607 35.9792 30.5742 35.8724L44.1894 31.3338C43.6857 31.0351 43.0802 30.9601 42.5188 31.1268Z" fill="white"/>
<path d="M13.402 17.3038C13.4103 17.3181 13.4206 17.331 13.4327 17.3422C14.5571 18.5512 15.7419 19.7026 16.9824 20.7922C19.4817 23.2225 27.6007 29.9002 27.6007 29.9002C27.6007 29.9002 28.0438 29.5352 28.7507 28.9495C26.4223 27.0183 21.1998 22.6567 19.2824 20.7922C18.0419 19.7026 16.8571 18.5512 15.7327 17.3422C15.7206 17.331 15.7103 17.3181 15.702 17.3038C13.9161 15.2446 12.9645 12.5921 13.034 9.86718C13.034 4.29888 16.1981 1.29125 20.5849 0.835079C20.2188 0.791591 19.8504 0.768811 19.4817 0.766846C14.483 0.766846 10.734 3.80285 10.734 9.86718C10.6645 12.5921 11.6161 15.2446 13.402 17.3038Z" fill="white"/>
<path d="M27.6001 30.6667C27.4225 30.6666 27.2504 30.6048 27.1133 30.4919C26.7806 30.219 18.9368 23.7667 16.4459 21.3456C16.1063 21.0152 15.7413 20.684 15.3672 20.3443C12.9606 18.1586 9.9668 15.4384 9.9668 9.87089C9.9668 3.78279 13.6115 6.08464e-05 19.4788 6.08464e-05C22.7074 -0.0112422 25.7385 1.55283 27.6001 4.19066C29.4617 1.55283 32.4929 -0.0112422 35.7214 6.08464e-05C41.5887 6.08464e-05 45.2335 3.78279 45.2335 9.87089C45.2335 15.4384 42.2396 18.1586 39.8331 20.3443C39.4589 20.684 39.094 21.0152 38.7536 21.3456C36.2635 23.7667 28.4197 30.219 28.087 30.4919C27.9498 30.6048 27.7778 30.6666 27.6001 30.6667ZM19.4788 1.53339C14.4832 1.53339 11.5001 4.64989 11.5001 9.87089C11.5001 14.7592 14.1022 17.1236 16.3984 19.2089C16.7863 19.5616 17.165 19.9035 17.5146 20.2462C19.6107 22.2825 25.8123 27.4291 27.6001 28.9034C29.388 27.426 35.5896 22.2794 37.6849 20.2401C38.0375 19.8974 38.414 19.5554 38.8019 19.2028C41.1019 17.1174 43.7001 14.7561 43.7001 9.86476C43.7001 4.64989 40.717 1.53339 35.7214 1.53339C32.6167 1.54038 29.764 3.24347 28.2848 5.97316C28.1395 6.21088 27.881 6.35586 27.6024 6.35586C27.3239 6.35586 27.0654 6.21088 26.9201 5.97316C25.4401 3.24202 22.5852 1.53869 19.4788 1.53339Z" fill="#EE3675"/>
<path d="M1.53333 27.6001V37.5668V43.7001H0V37.5668V27.6001H1.53333Z" fill="white"/>
<path d="M0.766667 31.4334C1.19009 31.4334 1.53333 31.0902 1.53333 30.6668V27.6001H0V30.6668C0 31.0902 0.343248 31.4334 0.766667 31.4334Z" fill="#EE3675"/>
<path d="M0 43.7001H1.53333V36.8001C1.53333 36.3767 1.19009 36.0334 0.766667 36.0334C0.343248 36.0334 0 36.3767 0 36.8001V43.7001Z" fill="#EE3675"/>
<path d="M1.53305 33.7333C1.53007 33.5304 1.45068 33.336 1.31072 33.189L1.19572 33.097C1.15299 33.068 1.10658 33.0448 1.05772 33.028C1.01427 33.0059 0.967757 32.9904 0.919716 32.982C0.869005 32.9735 0.817779 32.9684 0.766383 32.9667C0.563425 32.9696 0.369052 33.049 0.222049 33.189C0.152745 33.2623 0.0980969 33.3482 0.0610492 33.442C-0.0546228 33.7279 0.00841902 34.0552 0.222049 34.2777C0.295348 34.347 0.381224 34.4016 0.475049 34.4387C0.56722 34.4779 0.666197 34.4988 0.766383 34.5C0.96934 34.497 1.16371 34.4176 1.31072 34.2777C1.45068 34.1307 1.53007 33.9363 1.53305 33.7333Z" fill="#EE3675"/>
<path d="M6.13333 46H2.3C1.02974 46 0 44.9703 0 43.7C0 43.2766 0.343248 42.9334 0.766667 42.9334C1.19008 42.9334 1.53333 43.2766 1.53333 43.7C1.53333 44.1235 1.87658 44.4667 2.3 44.4667H6.13333C6.55675 44.4667 6.9 44.1235 6.9 43.7V27.6C6.9 27.1766 6.55675 26.8334 6.13333 26.8334H2.3C1.87658 26.8334 1.53333 27.1766 1.53333 27.6C1.53333 28.0235 1.19008 28.3667 0.766667 28.3667C0.343248 28.3667 0 28.0235 0 27.6C0 26.3298 1.02974 25.3 2.3 25.3H6.13333C7.40359 25.3 8.43333 26.3298 8.43333 27.6V43.7C8.43333 44.9703 7.40359 46 6.13333 46Z" fill="#EE3675"/>
<path d="M27.0637 45.2333H7.66706C7.24364 45.2333 6.90039 44.8901 6.90039 44.4667C6.90039 44.0433 7.24364 43.7 7.66706 43.7H27.0637C27.9075 43.7 28.735 43.4679 29.4557 43.0292L43.8269 34.2815C44.1482 34.0859 44.3719 33.7636 44.4429 33.3942C44.5139 33.0248 44.4255 32.6426 44.1995 32.3418C44.1842 32.3204 44.1688 32.2989 44.1558 32.2767C43.8041 31.8543 43.2279 31.6935 42.7083 31.8726L28.5204 36.6037C28.128 36.7343 27.7172 36.8006 27.3037 36.8H20.4896C19.2784 36.7988 18.0941 37.1575 17.0871 37.8304L16.5259 38.2045C16.1736 38.4395 15.6975 38.3445 15.4625 37.9922C15.2275 37.6399 15.3226 37.1638 15.6749 36.9288L16.2369 36.5547C17.4955 35.7135 18.9757 35.2652 20.4896 35.2667H27.3037C27.5512 35.2667 27.7972 35.2268 28.032 35.1486L42.223 30.4183C43.3933 30.0252 44.6836 30.427 45.4239 31.4149C45.4398 31.4359 45.4547 31.4576 45.4683 31.4801C45.9272 32.1158 46.1011 32.9137 45.9483 33.6827C45.7947 34.4779 45.3124 35.1711 44.6204 35.5917L30.2523 44.3386C29.2918 44.9242 28.1886 45.2337 27.0637 45.2333Z" fill="#EE3675"/>
<path d="M25.5036 36.8C25.1899 36.8004 24.9077 36.6097 24.791 36.3186C24.6743 36.0275 24.7467 35.6947 24.9738 35.4783C25.6155 34.8254 25.7344 33.8211 25.2628 33.0365L25.1938 32.9222C24.6377 32.0009 23.6411 31.4365 22.5649 31.4334H18.5537C16.7912 31.431 15.0816 30.8313 13.7038 29.7321C12.5989 28.8501 11.2275 28.3688 9.81373 28.3667H7.66706C7.24364 28.3667 6.90039 28.0235 6.90039 27.6C6.90039 27.1766 7.24364 26.8334 7.66706 26.8334H9.81373C11.5762 26.8357 13.2859 27.4354 14.6637 28.5346C15.7686 29.4166 17.1399 29.898 18.5537 29.9H22.5642C24.1787 29.905 25.6737 30.7515 26.5087 32.1333L26.5777 32.2476C27.4141 33.6419 27.1927 35.4268 26.041 36.5746C26.015 36.6 25.9874 36.6236 25.9582 36.6452C25.8275 36.7448 25.6679 36.7992 25.5036 36.8Z" fill="#EE3675"/>
<path d="M17.5864 10.7333H13.7999C13.3765 10.7333 13.0332 10.3901 13.0332 9.96665C13.0332 5.70475 16.2164 3.06665 19.1665 3.06665C19.59 3.06665 19.9332 3.4099 19.9332 3.83332C19.9332 4.25674 19.59 4.59998 19.1665 4.59998C18.9499 4.58744 18.741 4.6827 18.6084 4.85452C17.8532 5.77452 18.1009 8.59585 18.3393 9.82022C18.3831 10.045 18.324 10.2777 18.1783 10.4544C18.0326 10.6311 17.8155 10.7334 17.5864 10.7333ZM14.6087 9.19998H16.691C16.507 7.95322 16.5228 6.68512 16.7377 5.44332C15.5169 6.32759 14.7401 7.69829 14.6087 9.19998Z" fill="#EE3675"/>
<path d="M42.167 23.7667C41.7436 23.7667 41.4004 23.4234 41.4004 23V22.2333C41.4004 21.8099 41.7436 21.4667 42.167 21.4667C42.5905 21.4667 42.9337 21.8099 42.9337 22.2333V23C42.9337 23.4234 42.5905 23.7667 42.167 23.7667Z" fill="#EE3675"/>
<path d="M44.4669 25.3H43.7003C43.2768 25.3 42.9336 24.9568 42.9336 24.5334C42.9336 24.11 43.2768 23.7667 43.7003 23.7667H44.4669C44.8903 23.7667 45.2336 24.11 45.2336 24.5334C45.2336 24.9568 44.8903 25.3 44.4669 25.3Z" fill="#EE3675"/>
<path d="M42.167 27.6C41.7436 27.6 41.4004 27.2568 41.4004 26.8334V26.0667C41.4004 25.6433 41.7436 25.3 42.167 25.3C42.5905 25.3 42.9337 25.6433 42.9337 26.0667V26.8334C42.9337 27.2568 42.5905 27.6 42.167 27.6Z" fill="#EE3675"/>
<path d="M40.6329 25.3H39.8663C39.4429 25.3 39.0996 24.9568 39.0996 24.5334C39.0996 24.11 39.4429 23.7667 39.8663 23.7667H40.6329C41.0564 23.7667 41.3996 24.11 41.3996 24.5334C41.3996 24.9568 41.0564 25.3 40.6329 25.3Z" fill="#EE3675"/>
<path d="M9.20026 19.1667C8.77684 19.1667 8.43359 18.8234 8.43359 18.4V17.6334C8.43359 17.2099 8.77684 16.8667 9.20026 16.8667C9.62368 16.8667 9.96693 17.2099 9.96693 17.6334V18.4C9.96693 18.8234 9.62368 19.1667 9.20026 19.1667Z" fill="#EE3675"/>
<path d="M11.5001 20.7001H10.7335C10.31 20.7001 9.9668 20.3568 9.9668 19.9334C9.9668 19.51 10.31 19.1667 10.7335 19.1667H11.5001C11.9235 19.1667 12.2668 19.51 12.2668 19.9334C12.2668 20.3568 11.9235 20.7001 11.5001 20.7001Z" fill="#EE3675"/>
<path d="M9.20026 23.0001C8.77684 23.0001 8.43359 22.6568 8.43359 22.2334V21.4667C8.43359 21.0433 8.77684 20.7001 9.20026 20.7001C9.62368 20.7001 9.96693 21.0433 9.96693 21.4667V22.2334C9.96693 22.6568 9.62368 23.0001 9.20026 23.0001Z" fill="#EE3675"/>
<path d="M7.66712 20.7001H6.90045C6.47704 20.7001 6.13379 20.3568 6.13379 19.9334C6.13379 19.51 6.47704 19.1667 6.90045 19.1667H7.66712C8.09054 19.1667 8.43378 19.51 8.43378 19.9334C8.43378 20.3568 8.09054 20.7001 7.66712 20.7001Z" fill="#EE3675"/>
<path d="M6.90046 3.06685C6.47704 3.06685 6.13379 2.7236 6.13379 2.30018V1.53351C6.13379 1.11009 6.47704 0.766846 6.90046 0.766846C7.32388 0.766846 7.66712 1.11009 7.66712 1.53351V2.30018C7.66712 2.7236 7.32388 3.06685 6.90046 3.06685Z" fill="#EE3675"/>
<path d="M9.20032 4.59999H8.43366C8.01024 4.59999 7.66699 4.25674 7.66699 3.83332C7.66699 3.4099 8.01024 3.06665 8.43366 3.06665H9.20032C9.62374 3.06665 9.96699 3.4099 9.96699 3.83332C9.96699 4.25674 9.62374 4.59999 9.20032 4.59999Z" fill="#EE3675"/>
<path d="M6.90046 6.90009C6.47704 6.90009 6.13379 6.55685 6.13379 6.13343V5.36676C6.13379 4.94335 6.47704 4.6001 6.90046 4.6001C7.32388 4.6001 7.66712 4.94335 7.66712 5.36676V6.13343C7.66712 6.55685 7.32388 6.90009 6.90046 6.90009Z" fill="#EE3675"/>
<path d="M5.36634 4.59999H4.59967C4.17626 4.59999 3.83301 4.25674 3.83301 3.83332C3.83301 3.4099 4.17626 3.06665 4.59967 3.06665H5.36634C5.78976 3.06665 6.133 3.4099 6.133 3.83332C6.133 4.25674 5.78976 4.59999 5.36634 4.59999Z" fill="#EE3675"/>
</g>
<defs>
<linearGradient id="paint0_linear" x1="41.4511" y1="43.0173" x2="25.0942" y2="19.7225" gradientUnits="userSpaceOnUse">
<stop stop-color="#FEEFF4"/>
<stop offset="1" stop-color="#FFFBF5"/>
</linearGradient>
<linearGradient id="paint1_linear" x1="39.3841" y1="42.3165" x2="23.6844" y2="20.3259" gradientUnits="userSpaceOnUse">
<stop stop-color="#FEEFF4"/>
<stop offset="1" stop-color="#FFFBF5"/>
</linearGradient>
<linearGradient id="paint2_linear" x1="41.0707" y1="27.3963" x2="12.3384" y2="6.1228" gradientUnits="userSpaceOnUse">
<stop stop-color="#FEEFF4"/>
<stop offset="1" stop-color="#FFFBF5"/>
</linearGradient>
<linearGradient id="paint3_linear" x1="39.0075" y1="25.2939" x2="12.4537" y2="5.39994" gradientUnits="userSpaceOnUse">
<stop stop-color="#FEEFF4"/>
<stop offset="1" stop-color="#FFFBF5"/>
</linearGradient>
<linearGradient id="paint4_linear" x1="18.6271" y1="9.43975" x2="13.238" y2="6.42453" gradientUnits="userSpaceOnUse">
<stop stop-color="#FEEFF4"/>
<stop offset="1" stop-color="#FFFBF5"/>
</linearGradient>
<clipPath id="clip0">
<rect width="46" height="46" fill="white"/>
</clipPath>
</defs>
</svg>
